<svg width="1080" height="1080" viewBox="0 0 1080 1080" fill="none" xmlns="http://www.w3.org/2000/svg">
<g clip-path="url(#clip0_587_6)">
<circle cx="540" cy="540" r="540" fill="#252525"/>
<path d="M171.95 771.94C171.95 784.96 153.35 784.96 144.67 784.96C135.37 784.96 113.67 784.96 113.67 771.32V537.58C113.67 436.52 202.33 355.3 315.79 355.3C428.63 355.3 517.29 436.52 517.29 536.96C517.29 637.4 428.63 718 315.79 718C259.37 718 207.91 696.92 171.95 664.68V771.94ZM174.43 536.96C174.43 598.96 237.05 654.76 315.79 654.76C393.91 654.76 456.53 598.96 456.53 536.96C456.53 474.96 393.91 419.16 315.79 419.16C237.05 419.16 174.43 474.96 174.43 536.96ZM581.538 538.2C581.538 439 666.478 358.4 775.598 358.4C880.998 358.4 948.578 358.4 949.198 358.4C963.458 359.02 972.758 373.28 972.758 387.54C972.758 403.04 963.458 417.3 949.198 417.3C949.198 417.3 848.138 417.3 775.598 417.3C706.158 417.3 645.398 471.24 645.398 538.2C645.398 605.16 708.638 659.72 781.798 659.72H949.198C963.458 659.72 972.758 673.98 972.758 688.86C972.758 703.74 963.458 718 949.198 718C949.198 718 881.618 718.62 781.798 718.62C667.098 718.62 581.538 638.02 581.538 538.2Z" fill="#F4F7ED"/>
</g>
<defs>
<clipPath id="clip0_587_6">
<rect width="1080" height="1080" fill="white"/>
</clipPath>
</defs>
</svg>
