<?xml version="1.0" encoding="UTF-8" standalone="no"?>
<svg
   id="Livello_2"
   data-name="Livello 2"
   viewBox="0 0 700.04 307.85"
   version="1.1"
   sodipodi:docname="PoliTo-1-bianco.svg"
   inkscape:export-filename="PoliTo-1-bianco.png"
   inkscape:export-xdpi="96"
   inkscape:export-ydpi="96"
   inkscape:version="1.4 (e7c3feb100, 2024-10-09)"
   xmlns:inkscape="http://www.inkscape.org/namespaces/inkscape"
   xmlns:sodipodi="http://sodipodi.sourceforge.net/DTD/sodipodi-0.dtd"
   xmlns="http://www.w3.org/2000/svg"
   xmlns:svg="http://www.w3.org/2000/svg">
  <sodipodi:namedview
     id="namedview1"
     pagecolor="#ffffff"
     bordercolor="#000000"
     borderopacity="0.25"
     inkscape:showpageshadow="2"
     inkscape:pageopacity="0.0"
     inkscape:pagecheckerboard="0"
     inkscape:deskcolor="#d1d1d1"
     inkscape:zoom="1.6870465"
     inkscape:cx="350.01999"
     inkscape:cy="154.11549"
     inkscape:window-width="1920"
     inkscape:window-height="1011"
     inkscape:window-x="0"
     inkscape:window-y="0"
     inkscape:window-maximized="1"
     inkscape:current-layer="Livello_2" />
  <defs
     id="defs1">
    <style
       id="style1">
      .cls-1 {
        fill: #fff;
        stroke-width: 0px;
      }
    </style>
  </defs>
  <g
     id="Livello_1-2"
     data-name="Livello 1">
    <path
       id="orizzontale"
       class="cls-1"
       d="m388.81,96.76h-18.77v47h10v-15.57h8.81c9.76,0,16.08-6.79,16.08-15.81s-6.32-15.62-16.12-15.62Zm-1.95,22.81h-6.86v-14.18h6.86c4.44,0,7.4,2.48,7.4,7s-2.96,7.13-7.4,7.13v.05Zm38.75-9.74c-10.63,0-17.9,7.6-17.9,17.42s7.27,17.56,17.9,17.56,18-7.67,18-17.56-7.36-17.42-18-17.42Zm0,26.1c-4.51,0-8.14-3.23-8.14-8.68s3.63-8.61,8.14-8.61,8.21,3.3,8.21,8.61-3.63,8.68-8.21,8.68Zm60.14-1.81c0,7.67,5.12,10.69,11.1,10.69,1.91,0,3.81-.26,5.66-.74v-8.14c-.88.25-1.79.39-2.7.41-3.16,0-4.64-1.48-4.64-4.44v-13.14h7.34v-7.81h-7.34v-12.36l-9.08,3.37v8.94h-5.92v7.86h5.58v15.36Zm37.68-24.29c-9.42,0-16.89,6.93-16.89,17.29,0,11.37,7.81,17.69,17.29,17.69,6.6,0,10.5-1.75,13.53-3.7v-8.14c-3.66,2.6-8.03,4-12.52,4-4.1,0-8.27-2.49-8.47-7h23.28c.06-.54.13-1.95.13-2.76,0-10.12-5.91-17.38-16.34-17.38h-.01Zm-6.82,13.86c.33-3.51,3.33-6.17,6.86-6.06,4.51,0,6.66,3,6.86,6.06h-13.72Zm45.08,21.12c3.49.01,6.94-.77,10.09-2.28v-9.77c-2.79,2.04-6.16,3.13-9.62,3.1-4.65,0-8.68-2.83-8.68-8.62s4-8.54,8.68-8.54c3.45,0,6.81,1.08,9.62,3.09v-9.69c-3.15-1.51-6.6-2.29-10.09-2.28-10.37,0-18,7.06-18,17.42s7.6,17.57,17.97,17.57h.03Zm38-20.58v19.53h9.42v-21.89c0-7.8-5.86-12-12.05-12-3.45-.09-6.79,1.25-9.22,3.7v-2.63h-9.28v32.82h9.42v-21.89c1.38-2.09,3.69-3.37,6.19-3.43,3.14,0,5.5,2.22,5.5,5.79h.02Zm31.62,3c0,10.43,7.6,17.56,18,17.56,3.49.01,6.94-.77,10.09-2.28v-9.75c-2.79,2.05-6.16,3.13-9.62,3.1-4.64,0-8.68-2.83-8.68-8.62s4-8.54,8.68-8.54c3.45,0,6.82,1.08,9.62,3.09v-9.69c-3.15-1.51-6.6-2.29-10.09-2.28-10.42.01-18.02,7.07-18.02,17.43l.02-.02Zm50.73-17.42c-10.63,0-17.9,7.6-17.9,17.42s7.27,17.56,17.9,17.56,18-7.67,18-17.56-7.43-17.4-18.02-17.4l.02-.02Zm0,26.1c-4.51,0-8.14-3.23-8.14-8.68s3.63-8.61,8.14-8.61,8.21,3.3,8.21,8.61-3.64,8.7-8.23,8.7l.02-.02Zm-201,22.33h-40.22v9.22h15v37.9l10.15.06v-37.87l15.07-.07v-9.24Zm12.79,13.12c-10.63,0-17.9,7.6-17.9,17.43s7.27,17.56,17.9,17.56,18-7.67,18-17.56-7.36-17.41-17.99-17.41v-.02Zm0,26.11c-4.51,0-8.14-3.23-8.14-8.68s3.63-8.62,8.14-8.62,8.21,3.3,8.21,8.62-3.63,8.7-8.2,8.7v-.02Zm33.16-20.26v-4.75h-9.28v32.9h9.42v-19c1.03-3.37,4.16-5.65,7.68-5.6,1.15-.03,2.31.08,3.43.34v-9.56c-.8-.11-1.61-.18-2.42-.2-3.89-.08-7.41,2.27-8.82,5.89v-.02Zm52.62-5.83c-3.45-.08-6.78,1.25-9.22,3.7v-2.62h-9.28v32.9h9.42v-21.94c1.38-2.09,3.69-3.37,6.19-3.43,3.16,0,5.51,2.22,5.51,5.79v19.58h9.42v-21.94c.01-7.8-5.84-12.04-12.04-12.04Zm35.18,0c-10.63,0-17.89,7.6-17.89,17.43s7.26,17.56,17.89,17.56,18-7.67,18-17.56-7.36-17.43-17.99-17.43h-.01Zm0,26.11c-4.5,0-8.14-3.23-8.14-8.68s3.64-8.62,8.14-8.62,8.21,3.3,8.21,8.62-3.62,8.68-8.2,8.68h-.01Zm-360.53-28.25l-2.56.62v2.15l2.56-.49v-2.28Zm1.48-.78l-1,.24v2.72l1-.19v-2.77Zm3.44-.42l-2.7.66v2.39l2.7-.53v-2.52Zm1.9-.91l-1.38.34v3l1.38-.26v-3.08Zm10-2l-3.6.85v2.94l3.6-.69v-3.1Zm-6.37,1.52l-2.95.72v2.66l2.95-.57v-2.81Zm1.9-.89l-1.31.33v3.31l1.31-.26v-3.38Zm-113.61-19.42c-.35-.02-.67.19-.79.52h1.58c-.13-.32-.44-.53-.79-.52Zm-76.07-45.93l-3.61-3.65-3.62,3.65h.42l3-2.74,3,2.74h.81Zm-17.7-1.65l-2.29,1.67h4.58l-2.29-1.67Zm46.81,33.23l-.87,2.06c0,.07-.05.18,0,.24s.24.1.52.07c.27.05.53.14.76.29.26.18.57.27.88.26h.12c.28-.02.56-.11.8-.26.29-.21.64-.31,1-.29.04,0,.08-.03.1-.06.04-.08.04-.17,0-.25l-.87-2.12v-.82c.03-.25-.14-.47-.39-.5-.25.02-.49.02-.74,0-.46,0-.94-.06-1.15.14-.09.1-.13.23-.12.36l-.04.88Zm.31-1h1.82v2.42h-1.82v-2.42Zm-35.48-30.53h4.58l-2.29-1.7-2.29,1.7Zm200.26,64.2l-3.6.9h0l3.6-.85v-.05ZM55.48,107.66c-.08.18-.08.38,0,.56.15.19.58.17,1,.16h.07c.44.08.86.24,1.24.49,1,.63,2.27.63,3.27,0,.37-.24.78-.41,1.22-.48h0c.23.06.48,0,.65-.17.09-.17.09-.38,0-.55l-1.51-3.65v-.42c0-.61,0-1.46-.32-1.82-.13-.13-.31-.2-.49-.2h-2.84c-.18,0-.36.07-.49.19-.35.37-.33,1.22-.32,1.83v.48l-1.48,3.58Zm2.29-5.24h2.94v4h-2.94v-4Zm164.84,48.06h-14.29l-1.31,1.28,1.14-1h14.14l.32-.28Zm-105.4-20.67l-1.9-1.92-1.91,1.92h.06l1.76-1.58,1.76,1.58h.23Zm-4.08,4.46c.06.07.23.1.52.07.27.04.52.14.75.29.26.18.57.27.89.26.33.02.65-.07.92-.26.22-.14.46-.24.72-.28h.05c.11.03.22,0,.3-.08.05-.07.05-.17,0-.24l-.87-2.11v-.22c0-.33,0-.83-.16-1-.06-.05-.15-.08-.23-.08h0c-.25.02-.49.02-.74,0-.46,0-1-.06-1.16.14-.09.1-.13.23-.12.36v.88l-.87,2.06c-.03.07-.03.14,0,.21h0Zm1.18-3.33h1.82v2.42h-1.82v-2.42Zm-.2-1.13h2.21l-1.1-.8-1.11.8Zm5.41,7.88h.05l2.75,2.84-2.81-3.15c-.69-.05-8.15,0-13.13,0h-2.21l15.35.31Zm-12.27-8.68l-1.1.8h2.21l-1.11-.8Zm-37.83-20.83c.15.19.58.17.95.16h.07c.44.08.87.25,1.25.49.99.64,2.27.64,3.26,0,.48-.34,1.06-.51,1.64-.47.11-.01.21-.08.27-.18.09-.17.09-.37,0-.54l-1.51-3.65v-.42c0-.61,0-1.46-.32-1.82-.13-.13-.31-.2-.49-.2h-2.84c-.18,0-.36.06-.49.19-.35.37-.33,1.22-.32,1.83v.48l-1.53,3.58c-.06.18-.03.38.06.55Zm2.27-5.8h2.92v4h-2.94l.02-4Zm206.27,60.53l-3.64.91v.09l3.64-.92v-.08Zm-99.53-9.71l-.19.28,26.32-.28h-26.13Zm102,9.09l-1.92.48v4.05l1.92-.38v-4.15Zm-7.1,1.77l-1.65.41v3.67l1.65-.32v-3.76Zm4.62-.61l-3.64.92v3.26l3.64-.7v-3.48Zm-140.42-94.95c-.54,1.63-.76,3.36-.62,5.08h.46v-.82c-.03-.47-.03-.93,0-1.4.11-2.81,1.61-5.39,4-6.88l.09-.07c.59-.39,1.13-.85,1.62-1.36,1.11-1.16,1.76-2.69,1.83-4.29-1.4,1.64-3.1,3-5,4v.42c1.28-.33,3-1.9,4.07-2.8-1.46,3.49-5.27,4.67-6.45,8.12Zm17.79-22.26c1.53-.62,2.75-1.81,3.4-3.33-1.09.99-2.34,1.79-3.7,2.36-.28.11-.56.24-.82.39-1.31.67-2.39,1.71-3.1,3,.55-.51,1.17-.94,1.84-1.28.58-.34,1.34-.69,2.38-1.14h0Zm-10.15,20.6c2.35-1.47,4.26-3.54,5.53-6,.42-.88.76-1.79,1-2.73.81-2.41,2.07-4.65,3.72-6.58-3.06,1.38-5.38,4-6.37,7.21-.75,2.93-2.07,5.68-3.88,8.1h0Zm32.14,87.22h-3.61l.07.23h3.48l.06-.23Zm-41.62-78.17c-.71.61-1.55,1.02-2.46,1.22-4.6.73-9.29.65-13.86-.25,9.09,15,26.27,25.29,43.92,25.11,6.12.03,12.2-1.04,17.95-3.16,0,0,.65-.25,1-.39v.09c.88-.47,2.59-.83,3.14-1.6.17-1.69.17-3.4,0-5.09-.26-5.54-1.92-8.51-3.34-10.14-.97-1.1-2.18-1.95-3.54-2.49-.63-.96-1.66-1.57-2.8-1.66-.17,0-.34.02-.5.06-.87-.62-1.94-.88-3-.73-1.32-1.09-3.03-1.6-4.74-1.41-1.62.11-2.11-2.94-2.49-5.32-.13-1.5.12-3.02.72-4.4.84.21,1.67.47,2.48.77,2.65.56,5,1.17,7.15-.2.17-.15.6-.22.37-.47l.12.12c1.5-1.69.63-3.83.76-5.56.87-.73,1.2-1.92.83-3,.62-2,3-1.75,3.85-4.21.54-.3-1.91-3.15-2.39-4-.54-.95-.79-2.05-.71-3.14.07,0,.08-.81.1-.82.07-.41.17-.82.32-1.21,1.61-.15,3.14-.8,4.36-1.87,1.39-1.13,2.51-2.56,3.29-4.17-1.11-1.23-2.36-2.32-3.74-3.23l1.54-1.41c.09-.09.17-.19.22-.31l1.48-1.44-.9-.34c-5.15-1.95-16.49-10-16.63-10.13-4-2.46-8.46-2.5-12.25-2.16-.43-1.85-.53-3.77-.3-5.66.52-3.5,3.26-6.41,6.67-8.2l-1.27-4.79c-16.48-2-28.95,6.16-33.46,17.24-4.25,10.45-2.46,22.39,4.36,29l.36.35c.81-.48,1.93-1.39,2.68-1.95l.31-.14v-.12c0-.68-.08-1.35-.11-2-.11-5.78-.29-14.13,5.69-15-5.65,7-6.31,15.67-.57,22.71,1,1.54,2,3,2.1,4.68-.11,2.68-1.2,5.22-3.06,7.14l.32.34h0c2.51-2.83,3.07-4.87,3.18-7.43-.14-2.16-1.43-4-2.64-5.59-5.25-7.42-4.75-14.12,1.69-22.37-1.74-.06-3.42.59-4.66,1.81-2.16,2.27-2.89,6.91-2.46,15.53v.08l-1.66,1.23-.09-.12c-.55-.69-1.27-1.64-1.93-2.54-.95-1.47-1.77-3.02-2.44-4.63v-.05h0c.62-2.84,2.07-5.43,4.16-7.45-2.19,1.24-4.07,2.94-5.51,5l-.48.73.16-.79c.19-.66.45-1.3.77-1.91,1.06-1.88,2.48-3.54,4.19-4.87-2.05,1.42-3.83,3.2-5.25,5.25l-.26.35v-.43c-.04-.49-.11-.97-.23-1.45-.26-1.32-.57-2.81.5-3.78,1.81-1.75,3.89-3.2,6.16-4.28-2.32.84-4.55,1.91-6.66,3.19l-.31.18.08-.34c.09-.53.13-1.06.12-1.59,0-1.52.06-3.25,1.81-3.43,2.86-.88,5.81-1.45,8.79-1.72h-.55c-2.65-.06-5.29.2-7.87.78-.56.24-.94.26-1.16.05-.43-.43,0-1.58.72-3.15.23-.48.42-.97.59-1.48v-.13h.19c1.56.13,3.45.45,5.22.78-1.34-.45-2.91-1-4.72-1.7l-.2-.08.14-.16c.28-.42.51-.86.7-1.33.48-1,1-2.08,1.64-2.14.31,0,.62.15.93.57,2.01,1.75,4.26,3.19,6.68,4.29-2.66-1.6-4.95-3.74-6.73-6.29l-.08-.11.11-.09c.28-.28.53-.58.75-.91.49-.65,1-1.32,1.52-1.32h.04c.31,0,.57.27.8.74,2.42,2.72,5.27,5.02,8.44,6.81-2.91-2.21-5.48-4.83-7.63-7.78-.21-.3-.4-.59-.58-.88l-.09-.14.15-.07c.32-.22.62-.48.9-.76.65-.61,1.27-1.18,1.76-1,.25.09.41.35.49.82,1.64,3.47,4.11,6.5,7.18,8.8-4-4.31-5.09-7.91-5.25-10.25v-1.09h.08c4.64-2.38,9.79-3.59,15-3.51h.28v.31c-1.1.06-2.19.17-3.24.32-1.76.8-2.76,2.7-2.41,4.61l-.3.07c-.41-1.35-.46-2.78-.14-4.15-1.89.42-3.73,1.02-5.51,1.77-1.39,4.5.93,9.75,5.82,13.26-.74-1.36-2.35-4.78-1.62-7.28l.16-.55.13.56c.65,2.42,1.64,4.73,2.94,6.87-1-3.91-.72-10.37,8.59-15.38l.17-.1.05.2q1,3.94.92,4h0c-7.77,4.7-6.86,10.27-6.26,14,0,.28.09.54.12.79v.15h-.16c-1.39.16-5.84.86-8.39,3.46,2.79-1.36,5.82-2.15,8.91-2.33h.25l.07.3h0c-7,1.48-10,4.05-10.91,5.11-.65,1.58-.65,3.35,0,4.93,2.51-4.32,7.01-7.11,12-7.43l.9-.06-.83.35c-1.19.51-2.31,1.19-3.33,2-.75.65-1.06,1.25-.94,1.79.36,1.51,4.07,2.43,6.52,3,.74.18,1.38.34,1.84.49,2.2.66,3.18,1,3.28,1.47.01.23-.1.45-.3.57-.52.24-1.05.46-1.59.64-5.1,1.89-18.51,6.86-17.83,19.09.74-2.08,1.73-4.06,2.95-5.9,3-4.14,6.45-6.57,12.93-9-3.37.97-6.59,2.38-9.58,4.21l-.17-.26c6.95-5.27,10.4-7,17.15-6.78,1.31.14,2.6.41,3.86.8l.37.12-.34.17c-.25.11-.48.27-.68.46h-.07c-.71-.06-1.42-.01-2.12.14-1.24.23-2.42.69-3.49,1.35-2,1.21-2.94,2.32-5.62,6.56-1.1,1.71-2.8,2.96-4.76,3.49,1.6-.13,3.14-.64,4.49-1.5.93-.6,1.68-1.43,2.19-2.41.49-.88,1.15-1.67,1.93-2.31.93-.6,1.99-.97,3.09-1.09h.17l.07.08.16.21h-.35c-.8.32-1.52.8-2.13,1.4-1.18,1.25-1.26,3-1.33,4.6-.01.77.09,1.53.3,2.27.39,1.22-.18,2.47-.79,3.66-1.11,1.88-1.07,4.22.12,6.05,2.27,3.53,6.1,5.76,10.29,6h.12c.54-.01,1.07-.1,1.58-.27l.89-.3-.75.57c-1.53,1.16-2.6,1.26-6.34.61-.6-.08-1.18-.24-1.73-.49-.63-.3-1.31-.46-2-.49-.48.59-1,1.95-1,5l-.3,1.45-.19-.42c-.8-1.91-1.3-3.94-1.48-6v-1c-.52-.22-1.01-.48-1.47-.8-1.34-.81-2.31-2.1-2.72-3.61-.2-.97-.29-1.96-.25-2.95h0l-.83,1.32-.05-.44c-.12-1.76.1-3.52.65-5.19-1.09,1.65-1.73,3.55-1.86,5.52.02,1.2-.17,2.4-.57,3.54.07,1.51.35,3,.83,4.44.69,2.02,1.89,3.83,3.49,5.24l.5.43-.64-.16c-3.34-.88-4.7-1.89-6.14-3.65-.93,1.78-2.24,3.33-3.85,4.53-.89.74-1.72,1.54-2.48,2.4-2.94,3.16-1.13,9.28.66,11.68l.23.3h-.37c-5.15-.74-7.49-8.77-7.68-12.31-.72,1.37-2,2.36-3.5,2.73-1.05.33-2.14.54-3.24.61l-.06-.3.75-.21s3.31-1,3.43-3.73l-.51.25c-.11.79-.51,1.52-1.12,2.04h0Zm-7.28-35.54c0-.39.08-.78.14-1.16l.1-.6.19.57c.86,2.47,2.11,4.78,3.7,6.85l-.23.2c-1.58-1.72-2.89-3.67-3.89-5.78h0v-.08Zm43.57-11.73c-3.08-2.27-5.31-3.91-8.8-4.84l-3.66-.67.53-.19c1.05-.37,2.16-.56,3.28-.56h.12c1.96,0,3.87.64,5.45,1.8,8.65,6.39,13.09,7.71,14.6,8,.19.03.34.17.39.35.05.19,0,.39-.15.52l-2,1.79c1.39.93,2.68,1.99,3.86,3.18l.07.08-.05.09s-2.59,5.14-7.38,5.46c-.27.6-.44,1.25-.49,1.91v.56l-.27-.5c-.27-.52-.41-1.09-.41-1.68-.09-.09,0-.27.17-.91.07-.19.13-.39.18-.59.24-1.12-.05-2.29-.79-3.17l-.33-.36.48.11c.66.23,1.28.57,1.83,1-.16-.61-.51-1.15-1-1.55l-.36-.33.49.06c.52.07,1.04.09,1.56.07.67-.09,1.32-.11,1.84-.13s1.3,0,1.35-.18,0-.16-.53-.68h0c-.16-.11-.48-.41-1.24-1.13-1.56-1.46-4.64-4.35-5.38-5l-.16-.11c-1.15-.88-2.24-1.69-3.2-2.4Zm-4.74,11l-.92-.38,1,.08c2.93.26,3.94-.71,4.92-1.65.28-.27.57-.52.88-.76h.06c.72-.04,1.42.18,2,.61.34.2.7.36,1.07.49l.56.17-.57.13c-.9.22-1.8.5-2.67.82-1.36.52-2.8.79-4.25.82-.71,0-1.41-.12-2.08-.37v.04Zm4.18,8.83c-.05-.08-.05-.17,0-.25.05-.16.08-.32.1-.48-.22.36-.58.61-1,.67-.35.06-.71-.07-.94-.35-.13-.16-.19-.36-.17-.56-1.04.33-2.17,0-2.88-.81-.1-.11-.21-.23-.12-.35s.21-.06.3,0l.15.05c.69.09,1.39-.04,2-.39.55-.27,1.14-.43,1.75-.49-.95,0-1.89.1-2.82.26l-.44.07-.89.12,1.26-.65c2.61-1.34,2.82-1.45,6.83-.26h.16l-.39,1c.15-.14.31-.27.48-.39l.17-.12.06.2c.92,2.84,2.43,5.45,4.44,7.65l.07.07v.09c-.45,1.1-1.33,1.97-2.44,2.4h-.14l-.06-.13c-.35-.92-1.38-1.39-2.31-1.04-.03.01-.06.02-.09.04h-.08l-.06-.06c-.46-.35-.73-.91-.7-1.49.09-.44.49-.81,1.18-1.11.32-.17.32-.32.33-.38s-.21-.67-1.69-1.53c-1-.47-1.7-1-1.71-1.76-.07.09-.19.11-.28.04-.03-.02-.06-.06-.07-.1v.04Zm4.5,11.73c-.09.04-.17.1-.25.16-.22.19-.5.3-.79.3h-.2l-2.29-.47.63-.16c.09,0,2.15-.57,2.92-.08l.25.16-.27.09Zm.26-.94h0c-1.06-.08-2.13.02-3.16.29h-.05c-.22-.14-.4-.34-.52-.57l-.24-.39.38.1c.82.15,1.66-.11,2.26-.7.29-.21.6-.4.92-.57.44-.19.95-.05,1.22.34.24.55.07,1.19-.4,1.55-.22.03-.37-.06-.41-.09v.04Zm-28.26,17.72l-.07-.09.07-.09c.52-.69,1.12-1.31,1.8-1.84l.18-.14.06.22c.51,2.15,1.94,3.98,3.9,5l.63.33h-.71l-.46-.05c-2.16-.37-4.1-1.57-5.4-3.34Zm13.77,13.87c7.57-5.53,7.76-9.87,5.72-14.69l-.05-.1.08-.08c.29-.26,1.75,0,1.82,0,.67.13,2.24.51,2.76,1.37.49-.06,2.22-.19,3.07.76.46-.19.98-.19,1.44,0,.71.28,1.3.8,1.68,1.46.86.2,1.64.64,2.24,1.28,1.35.88,4.53,3.88,4.53,12.32,0,1.51,0,2.67-.05,3.53v.09h-.08c-.71.33-1.35.61-2,.86l-.21.09v-.23c-.13-5.8-.75-8.46-2.06-11.2,1.2,3.92,1.28,8.09.25,12.05v.08h-.07c-1.11.4-2.3.77-3.53,1.12l-.25.07.06-.26c1.62-5.94,1.12-12.25-1.4-17.86,1.01,6.35.32,12.85-2,18.84v.08h-.08c-2.15.42-4.32.7-6.51.84h-.28l.13-.25c3.94-7.11,5.68-10.72,5.73-15.53.03-1.49-.03-2.99-.2-4.47.09,8.54-3.76,16.59-9.79,19.92-.61.28-1.27.41-1.94.39-.8-.02-1.59-.11-2.37-.26-.63-.11-1.27-.18-1.91-.22h-.94l.9-.27c2.63-.78,15-5.25,13.72-19.92-.43,4.49-2.41,8.69-5.58,11.9-6.21,6.14-14.91,5.9-21.12,4.62h0c-7.81-3.4-14.65-8.69-19.9-15.4l-.35-.46.12-.1.12-.09.36.47c8.63,10.92,32.09,13.41,37.94,9.25h0Zm10.92,62.37h-17.11l-.22.34,8.77.1,8.76-.1-.2-.34Zm78.65-45c.06.1.16.17.28.17h.21c.42-.02.84.1,1.17.36,1.13.78,2.63.78,3.76,0,.46-.31,1.02-.44,1.57-.36h.15c.12,0,.23-.07.29-.17.09-.17.09-.37,0-.54l-1.54-3.65v-1.44c.05-.5-.31-.94-.81-1h-2.83c-.49.06-.85.51-.8,1v1.5l-1.5,3.59c-.07.16-.06.35.02.5l.03.04Zm2.22-5.78h3v4h-3v-4ZM50.07,166.93l3.63.7v-3.26l-3.63-.92v3.48Zm-2.48-.49l1.92.38v-4.06l-1.92-.48v4.16Zm26.23-9.17c.75,0,1.48.25,2.06.73v-.24h1.21l-3.27-2.28-3.28,2.28h1.21v.23c.58-.49,1.31-.75,2.07-.74v.02Zm-16.92,7.42l3.6.85h0l-3.6-.9v.05Zm194.07,5l-.42.1v2.48l.42-.09v-2.49Zm-196.28-1.84l1.65.32v-3.67l-1.65-.41v3.76Zm-4.62-4.83l3.63.92v-.09l-3.63-.91v.08Zm13.2,3.22h0l.67.16-.67-.16Zm31.87-45.55l1.26,1.56v-4.51l-.25-.61-1.15.18.13.3v3.08Zm-2-8.35l1.24,2.75-.53-.25.42.9.52-.64-1.64-3.25-.48.47.13.29.34-.27Zm144,4.17l1.16-1.43v-6.11l-1.16,2.69v4.85Zm-181,39l-3.2,2.25h1.21v.23c1.2-.99,2.93-.99,4.13,0v-.23h1.21l-3.35-2.25Zm37.06-37.64v-3.37h0l-.41-1-.33.05v4.44l.75,1c.05-.23.06-.63.06-1.13h-.07Zm-2.36-6.23l-1.17-2.69v6.11l1.17,1.43v-4.85Zm143.91,2.89v4.45l.76-1v-4.44l-.33-.05-.43,1.04Zm-115.42,69.11l.2-.15h0l-.2.15Zm-42.27-11.49l.42.09v-2.48l-.42-.1v2.49Zm42.38-1.58l-.18.17.19-.15v-.02Zm-41.44,1.77l2,.39v-2l-2-.5v2.11Zm41.44-.53h0l-.19-.46-.66.1.85.36Zm-3-1.31l-.24-.6-.85.13,1.09.47Zm-49.5-.3l1.38.26v-3l-1.38-.34v3.08Zm1.9.36l2.7.53v-2.39l-2.7-.66v2.52Zm8.45-9.36h-.84v-.38c.04-1-.49-1.94-1.36-2.44-.34-.17-.72-.26-1.1-.26,1.4.16,2.41,1.41,2.28,2.81h0v.08c-.05.11-.06.12-3.31.09h-1.35l-.13.54h2.22v5.95h-2.29l.62.16h1.67v.42h.14v-.41h2.42v1.06l.6.15.43.11v-7.88Zm-1,6.43h-2.42v-5.95h2.42v5.95Zm-13,1.85l3,.57v-2.66l-3-.72v2.81Zm-1.81-.35l1.31.26v-3.31l-1.31-.33v3.38Zm10.82,2.1l1,.19v-2.72l-1-.24v2.77Zm1.49.29l2.56.49v-2.15l-2.56-.62v2.28Zm-16.87-3.27l3.6.69v-2.94l-3.6-.85v3.1Zm66.63-15.05l26.32.28-.19-.28h-26.13Zm87.27-18.93c0,.06.18.07.31.08.24,0,.47.07.65.22.62.43,1.44.43,2.06,0,.27-.18.6-.26.93-.22h.09s.08-.02.11-.06c.04-.08.04-.17,0-.25l-.89-2.12v-.82c.03-.25-.14-.47-.39-.5-.25.02-.49.02-.74,0h-.47c-.24-.03-.48.03-.68.16-.09.1-.13.23-.12.36v.88l-.86,2.06c-.06.13-.04.19-.02.21h.02Zm1.16-3.33h1.82v2.42h-1.82v-2.42Zm8.88-1.93l-1.11.8h2.21l-1.1-.8Zm-45.25,17.48c-.31-.16-.69-.16-1,0-.14.08-.24.21-.28.37h1.6c-.05-.16-.17-.3-.32-.37Zm32.72-12.11v-.07l.73-1.71-.73,1.78Zm.23,3.31h.05l15.29-.29h-15.32l-2.82,3.15,2.8-2.86Zm12.33,14h-12.58l-2.58,2.28h0c-.66.09-1.33.11-2,.06h-25.9l-.27.41h0v.21h.05v.18c-.06.3-.37,1.8-1,1.8-.37,0-.56-.41-.72-.77s-.25-.57-.42-.57-.28.28-.4.55-.34.79-.75.79c-.6,0-.81-1.38-.86-1.81v-.17h0v-.21h0l-.27-.41h-18.25l-.27.41h-.06v.21h.05v.17c0,.43-.26,1.81-.87,1.81-.4,0-.58-.42-.74-.79s-.24-.55-.4-.55-.3.29-.43.57-.34.77-.72.77c-.64,0-1-1.5-1-1.8v-.18h.08v-.21h0l-.27-.41h-27.85l-1.93-1.71-.66-.59h-12.67l5.12,3.67v-.16h3v2.3l2.68,1.92v-4.87c0-.58.2-1,.5-1s.63.62.63,1.66c0,1.2-.13,6-.13,6.06v.3l-.24-.18c-.17-.13-.46-.34-.77-.59-.53-.4-1.16-.89-1.59-1.19v1.3l5.51,3.81h6.23l-.09-7.1h-3.68l-.27-.81h4.69l-.25.67v7.24h5.86l-.08-7.1h-3.71l-.28-.81h4.69l-.24.67v7.24h5.86l-.09-7.1h-3.68l-.27-.81h4.69l-.25.67v7.24h5.86l-.08-7.1h-3.68l-.28-.81h4.75l-.24.67v7.24h3.34v-.43h3.68v.43h4.93l-.09-7.1h-3.68l-.28-.81h4.7l-.25.67v7.24h8.71v-7.24l-.25-.67h4.69l-.27.81h-3.68l-.09,7.1h4.92v-.43h3.69v.43h3.34v-7.24l-.25-.67h4.7l-.28.81h-3.68l-.09,7.1h5.87v-7.24l-.25-.67h4.69l-.27.81h-3.71l-.09,7.1h5.86v-7.24l-.25-.67h4.7l-.28.81h-3.68l-.09,7.1h5.86v-7.24l-.24-.67h4.69l-.27.81h-3.68l-.09,7.1h6.22l5.54-3.79v-1.29c-.77.56-2,1.48-2.36,1.77l-.24.18v-.3s-.13-4.86-.13-6.06c0-1,.23-1.66.62-1.66s.51.4.51,1v4.87l2.67-1.92v-2.3h3v.16l5.11-3.73Zm-107.52.15h.33c.89-.08,1.69.57,1.79,1.46v.15h-.77v-.11c-.18-.61-.69-1.06-1.32-1.17l-1.09-.15,1.06-.18Zm1.7,3.05h-2.76l-.49-1.34h3.79l-.54,1.34Zm6.35,2.4l-.2-.12c-.09.08-.48.64-.48,4.32v.15h-.49v-4.69c-.01-.27.03-.54.12-.8.11-.27.28-.32.37-.32.36,0,.68.57.68,1.19v.27Zm.48-3.15c-.17,0-.33.05-.46.15-.13.14-.2.33-.19.53v.15h-1.09v-.15c-.04-.33.09-.65.34-.87.44-.26.98-.3,1.46-.11l-.06.3Zm3.29,4.3h2.57v5.17h-2.57v-5.17Zm6.27,0h2.57v5.17h-2.57v-5.17Zm6.26,0h2.57v5.17h-2.57v-5.17Zm6.27,0h2.62v5.17h-2.57l-.05-5.17Zm-20-1.68l.16-.24c.54-.81,1.28-1.75,1.64-1.62.13,0,.2.17.2.39,0,1,.9.87.9,0,0-.23.07-.37.21-.42h.06c.38,0,1,.87,1.51,1.63l.15.24-4.83.02Zm6.27,0l.16-.24c.54-.81,1.28-1.75,1.63-1.62.14.04.21.17.21.39,0,1,.89.87.89,0,0-.23.07-.37.21-.42h.07c.38,0,1,.87,1.5,1.63l.15.24-4.82.02Zm6.26,0l.16-.24c.54-.81,1.27-1.75,1.64-1.62.13,0,.2.17.2.39,0,1,.9.87.9,0,0-.23.07-.37.21-.42h.06c.38,0,1,.87,1.51,1.63l.15.24-4.83.02Zm6.27,0l.16-.24c.54-.81,1.27-1.75,1.63-1.62.14.04.21.17.21.39,0,1,.89.87.89,0,0-.23.07-.37.21-.42h.07c.38,0,1,.87,1.5,1.63l.15.24-4.82.02Zm10.91,6.89h-2.51v-.45h2.51v.45Zm2.61-5.21h2.57v5.17h-2.57v-5.17Zm15.41,5.17h-2.57v-5.17h2.57v5.17Zm-16.55-6.85l.16-.24c.54-.81,1.27-1.75,1.63-1.62.14.04.21.17.21.39,0,1,.89.87.89,0,0-.23.08-.37.22-.42h.06c.38,0,1,.87,1.5,1.63l.16.24-4.83.02Zm8.87-.21h0l-3.74-.25v-.31h7.48v.31l-3.74.25Zm4,.21l.15-.24c.49-.76,1.13-1.63,1.51-1.63h.06c.14.05.21.19.21.42,0,.85.9.94.9,0,0-.22.07-.35.2-.39.36-.12,1.1.81,1.64,1.62l.16.24-4.83-.02Zm8.77,6.89h-2.5v-.45h2.5v.45Zm7.24,0h-2.57v-5.17h2.57v5.17Zm-3.61-6.89l.16-.24c.48-.76,1.12-1.63,1.5-1.63h.06c.14.05.21.19.21.42,0,.85.9.94.9,0,0-.22.07-.35.21-.39.36-.12,1.09.81,1.63,1.62l.16.24-4.83-.02Zm9.92,6.85h-2.57v-5.17h2.57v5.17Zm6.27,0h-2.57v-5.17h2.55l.02,5.17Zm6.27,0h-2.58v-5.17h2.58v5.17Zm-16.19-6.85l.15-.24c.48-.76,1.13-1.63,1.51-1.63h.06c.14.05.21.19.21.42,0,.85.89.94.89,0,0-.22.07-.35.21-.39.35-.12,1.09.81,1.63,1.62l.17.24-4.83-.02Zm6.26,0l.16-.24c.48-.76,1.12-1.63,1.5-1.63h.06c.14.05.22.19.22.42,0,.85.89.94.89,0,0-.22.07-.35.21-.39.36-.12,1.09.81,1.63,1.62l.16.24-4.83-.02Zm6.27,0l.15-.24c.48-.76,1.13-1.63,1.51-1.63h.06c.14.05.21.19.21.42,0,.85.89.94.89,0,0-.22.07-.35.21-.39h.07c.38,0,1,.87,1.56,1.63l.17.24-4.83-.03Zm8.59,4.88h-.49v-.15c0-3.68-.39-4.24-.47-4.32l-.2.12v-.27c0-.62.32-1.19.67-1.19.1,0,.27.05.38.32.08.26.12.53.11.8v4.69Zm.1-6.67h-1.1v-.15c.02-.19-.05-.39-.18-.53-.13-.1-.3-.16-.47-.15l-.05-.3c.47-.19,1.01-.15,1.45.11.25.21.38.54.35.87v.15Zm5.14-2.69c.46-.38,1.06-.54,1.65-.44l.95.17-.95.13c-.63.1-1.14.56-1.32,1.17v.11h-.79v-.15c0-.37.18-.71.46-.95v-.04Zm-.06,2.61l-.48-1.34h3.73l-.48,1.34h-2.77Zm-1.25-25.12h2.22l-1.11-.8-1.11.8Zm2.93,0l-1.91-1.92-1.91,1.92h.24l1.76-1.58,1.76,1.58h.06Zm-93.61,21.99l-1.31-1.25h-14.32l.34.25h14.15l1.14,1Zm52.36,17.52l.2-.15.14-.09h-19.47l.1.07c.08.05.16.11.24.17h18.79Zm-51.39.52l-.13,26.42h25.92v-2.84h.84v-22.62l-.23-1.71h-25.77c-.36.04-.63.35-.63.71v.04Zm5.64,24.17h-.18c-.46-.05-.63.21-.88.63-.18.48-.62.82-1.14.85h-.11c-.51-.04-.95-.37-1.13-.85-.25-.42-.41-.69-.88-.63h-.17v-.56h4.49v.56Zm-4.08-6.89v-.54h3.77v.54h-.6v5.89h-2.57v-5.89h-.6Zm4.63-2l-.28-.13h-.35c-1,0-1.15,0-1.21-.12v-.09l.1-.15h.34l-1.31-.57-1.28.56c.24,0,.33,0,.38.12v.09l-.11.16h-2.18l3.17-1.61h.07l1.23.63,1.24.65c.07,0,.08,0,.1.11v.09h.09-.08l.08.26Zm-4.63-11v-.54h3.77v.54h-.6v5.89h-2.57v-5.89h-.6Zm4.13,6.3v.57h-.3c-.37,0-.53.25-.76.63-.18.48-.62.82-1.14.85h-.1c-.51-.03-.96-.37-1.14-.85-.25-.42-.43-.7-.88-.63h-.17v-.57h4.49Zm6.37,13.59h-.17c-.47-.05-.64.21-.89.63-.18.49-.62.82-1.14.85h-.1c-.64,0-.91-.47-1.13-.85s-.42-.69-.89-.63h-.17v-.56h4.49v.56Zm-4.13-6.86v-.54h3.77v.54h-.6v5.89h-2.57v-5.89h-.6Zm10.5,6.86h-.17c-.46-.05-.63.21-.88.63-.18.48-.63.82-1.15.85h-.1c-.64,0-.91-.47-1.13-.85s-.42-.68-.88-.63h-.18v-.56h4.49v.56Zm-4.12-6.86v-.54h3.76v.54h-.6v5.89h-2.57v-5.89h-.59Zm10.5,6.86h-.18c-.46-.05-.63.21-.88.63-.18.48-.62.82-1.14.85h-.11c-.64,0-.91-.47-1.13-.85s-.42-.69-.88-.63h-.17v-.56h4.49v.56Zm-4.13-6.86v-.54h3.76v.54h-.59v5.89h-2.58v-5.89h-.59Zm1.88-16.77h0l1.49.77,1,.52c.07,0,.09.05.1.11v.1h.1-.09v.14l-.26-.09h-.35c-1,0-1.15,0-1.21-.12l-.05-.09.11-.15h.33l-1.3-.57-1.29.56c.25,0,.34,0,.38.12l.05.09-.11.16h-2.1l3.2-1.55Zm-1.89,3.71v-.54h3.76v.54h-.59v5.89h-2.58v-5.89h-.59Zm4.13,6.3v.57h-.3c-.37,0-.54.25-.76.63-.18.49-.62.82-1.14.85h-.11c-.64,0-.91-.46-1.13-.85s-.41-.68-.88-.63h-.17v-.57h4.49Zm-2.24,3h.06l1.57.81.92.48c.07,0,.09,0,.1.11v.09h.1-.09v.17l-.26-.12h-.35c-1,0-1.15,0-1.21-.12l-.05-.09.11-.15h.33l-1.3-.57-1.29.56c.25,0,.34,0,.38.12l.05.09-.11.16h-2.16l3.2-1.54Zm-6.38-13h.06l1.45.75,1,.54c.08,0,.09,0,.11.11v.1h.09-.08v.15l-.26-.1h-.36c-1,0-1.14,0-1.21-.12v-.09l.11-.15h.33l-1.3-.57-1.29.56c.25,0,.34,0,.38.12l.05.09-.11.16h-2.19l3.22-1.55Zm-1.88,3.71v-.54h3.76v.54h-.6v5.89h-2.57v-5.89h-.59Zm4.12,6.3v.57h-.29c-.37,0-.54.25-.76.63-.18.49-.63.82-1.15.85h-.1c-.64,0-.91-.47-1.13-.85s-.42-.7-.88-.63h-.18v-.57h4.49Zm-2.23,3h.06l1.57.81.92.48c.07,0,.08,0,.1.11v.1h.09-.08v.18l-.28-.13h-.35c-1,0-1.14,0-1.21-.12v-.09l.11-.15h.33l-1.3-.57-1.29.56c.25,0,.34,0,.38.12l.05.09-.11.16h-2.19l3.2-1.55Zm-6.38-13h.06l1.49.77,1,.52c.08,0,.09.05.11.11v.1h.09-.08v.14l-.26-.09h-.35c-1,0-1.14,0-1.21-.12v-.09l.11-.15h.33l-1.3-.57-1.29.56c.24,0,.33,0,.38.12v.09l-.1.16h-2.19l3.21-1.55Zm-1.89,3.71v-.54h3.77v.54h-.6v5.89h-2.57v-5.89h-.6Zm4.13,6.3v.57h-.29c-.37,0-.54.25-.77.63-.17.49-.62.83-1.14.85h-.1c-.64,0-.91-.47-1.13-.85s-.42-.7-.89-.63h-.17v-.57h4.49Zm-2.23,3h.06l1.57.81.91.48c.08,0,.09,0,.11.11v.09h.09-.08v.17l-.27-.12h-.35c-1,0-1.14,0-1.21-.12v-.09l.11-.15h.33l-1.3-.57-1.29.56c.24,0,.33,0,.38.12v.09l-.1.16h-2.19l3.23-1.54Zm-6.32-13l1.51.78,1,.51c.07,0,.08,0,.1.11v.1h.09-.08v.15l-.27-.1h-.29c-1,0-1.15,0-1.21-.12v-.09l.1-.15h.34l-1.31-.57-1.28.56c.24,0,.33,0,.38.12v.09l-.11.16h-2.18l3.16-1.6.05.05Zm52.86,25.84v-2.84h.54v-22.67l.22-1.69h-2.84v.75h2l-.09.21c-.14.35-.37.76-.69.81-.21.02-.41-.09-.52-.27h-.09c-.19.09-.37.73-.36,1.05v15.4h1.7v.56h.56v.81h-5.64v-.9h.95v-.58h1.14v-15.3c0-.32-.16-.91-.38-1,0,0-.09,0-.22.05-.12.14-.32.2-.5.16-.29-.07-.5-.44-.59-.76l-.06-.2h1.91v-.77h-.12v.32h-1.3l-.41.3h0c-.23.06-1.31.06-6.53.06h-2.87v.22l-.18-.18-.13.09v-.13h-7.1c-.78.04-1.56.02-2.33-.05h0l-.42-.3h-1.29v-.32h-.16v.72h2l-.24.59c-.08.19-.25.33-.45.37-.19.03-.37-.04-.5-.18-.06-.04-.14-.04-.2,0-.23.12-.38.69-.38,1v15.32h1.14v.58h.95v.9h-5.65v-.81h.57v-.56h1.7v-15.39c0-.32-.17-1-.36-1.07-.03-.01-.07-.01-.1,0-.15.27-.48.36-.75.22-.12-.06-.21-.17-.25-.3l-.34-.68h2.06v-.77h-2.84l.22,1.67v22.67h.54v2.84h5.69v-9.4c-.03-1.18.9-2.15,2.08-2.18.05,0,.1,0,.14,0h0c1.16-.06,2.16.83,2.22,2,0,.06,0,.12,0,.18v8.06l-.41.45v.9h2.78v-.89l-.45-.44v-8.08c0-1.23.99-2.22,2.22-2.22s2.22.99,2.22,2.22v8.07l-.41.44v.9h2.8v-.89l-.45-.44v-8.08c-.04-1.16.87-2.14,2.04-2.18.06,0,.12,0,.17,0h0c1.16-.07,2.16.81,2.24,1.97,0,.07,0,.14,0,.21v9.41l5.8.04Zm-17.3-13.51h-.3l-.07-5.32c-.14-2.35-1.55-3.87-2.82-3.87h-.08c-1.16.06-2.32,1.49-2.12,5.31,0,2.37,0,3.34-.07,3.73v.1h0c0,.17-.06.18-.12.18h0c-.06,0-.1,0-.13-.18h0s0-.07,0-.11c0-.42-.05-1.48-.06-4.13v-4.77c-.37-1.62.64-3.22,2.26-3.59,1.62-.37,3.22.64,3.59,2.26.1.44.1.89,0,1.33l-.08,9.06Zm5.81-1.92h-.45v2h-.6v-2.47h.63v-4.75h-.11l-.68,1.92h0v3.28h-3.41v-3.3h0l-.68-1.92h-.01v4.72h.62v2.5h-.62v-2h-.45v-7.13c-.03-.99.33-1.95,1-2.67.49-.5,1.16-.8,1.86-.81h0c1.72.22,2.96,1.75,2.82,3.48l.08,7.15Zm5.53,1.88h0v-.09c0-.4-.05-1.37-.07-3.73.2-3.83-1-5.26-2.12-5.32s-2.76,1.47-2.91,3.87l-.06,5.32h-.31v-9.05c-.36-1.62.67-3.22,2.29-3.57s3.22.67,3.57,2.29c.09.42.09.86,0,1.29v9.01h0c0,.19-.07.19-.14.18s-.22-.01-.25-.19Zm80.16-82.25h4.58l-2.26-1.65-2.32,1.65Zm-41,70.09l1.1-.47-.86-.13-.24.6Zm-3.07,13l.2.15-.19-.18v.03Zm.09-12.92h0l.19.15-.19-.15Zm.85.86l-.67-.1-.19.48.86-.38Zm-3.33,24.76l-.11-26.44c.02-.38-.26-.71-.64-.75h-25.79l-.2,1.75v22.61h.84v2.84h25.9Zm-20.4-2.25h-.17c-.46-.05-.63.21-.88.63-.18.48-.63.82-1.15.85h-.1c-.64,0-.91-.47-1.13-.85s-.42-.69-.88-.63h-.18v-.56h4.49v.56Zm-4.14-6.87v-.54h3.77v.54h-.6v5.89h-2.57v-5.89h-.6Zm10.5,6.86h-.17c-.46-.05-.63.21-.88.63-.18.48-.62.82-1.14.85h-.11c-.64,0-.91-.47-1.13-.85s-.42-.69-.88-.63h-.18v-.56h4.49v.56Zm-4.12-6.86v-.54h3.76v.54h-.59v5.89h-2.55v-5.89h-.62Zm4.54-2.16h-.09s-.06.02-.09,0h-1c-.5,0-.58,0-.62-.14v-.1l.12-.13h.32l-1.3-.57-1.3.57h.42v.36h-2.23l3-1.57c.09,0,.1,0,1.93.9l.71.36s.06.02.08.05v.15h.11l-.06.12Zm-4.54-10.87v-.54h3.76v.54h-.59v5.89h-2.55v-5.89h-.62Zm4.12,6.3v.57h-.29c-.37,0-.54.25-.76.63-.18.49-.62.82-1.14.85h-.11c-.64,0-.91-.47-1.13-.85s-.43-.7-.88-.63h-.18v-.57h4.49Zm6.38,13.59h-.18c-.46-.05-.63.21-.88.63-.18.48-.62.82-1.14.85h-.11c-.64,0-.91-.47-1.13-.85s-.41-.69-.88-.63h-.17v-.56h4.49v.56Zm-4.13-6.86v-.54h3.76v.54h-.51v5.89h-2.57v-5.89h-.68Zm4.56-2.17l-.11.05h-1.69v-.36h.4l-1.31-.57-1.3.57h.42v.36h-2.24l3-1.57c.1-.05.12,0,1.93.9l.71.36h.73l-.54.23h.05l-.05.03Zm-4.56-10.86v-.54h3.76v.54h-.51v5.89h-2.57v-5.89h-.68Zm4.13,6.3v.57h-.3c-.37,0-.53.25-.76.63-.18.49-.62.82-1.14.85h-.1c-.52-.03-.96-.37-1.14-.85-.25-.42-.41-.7-.88-.63h-.17v-.57h4.49Zm6.37,13.59h-.17c-.46-.05-.64.21-.89.63-.18.48-.62.82-1.14.85h-.05c-.51-.03-.96-.37-1.14-.85-.24-.42-.42-.68-.88-.63h-.17v-.56h4.49l-.05.56Zm-4.13-6.86v-.54h3.77v.54h-.6v5.89h-2.57v-5.89h-.6Zm4.66-2.17h-.1l-.11.05h-1.68v-.36h.4l-1.31-.57-1.3.57h.42v.36h-2.24l3.05-1.57c.09,0,.09-.05,1.92.9l.72.36h.73l-.55.23.05.03Zm-4.66-10.86v-.54h3.77v.54h-.6v5.89h-2.57v-5.89h-.6Zm4.13,6.3v.57h-.25c-.37,0-.53.25-.76.63-.18.48-.62.82-1.14.85h-.1c-.51-.03-.96-.37-1.13-.85-.25-.42-.42-.7-.89-.63h-.17v-.57h4.44Zm-.45-9.1c.32.17.65.34.75.38h.76l-.58.24h.05-.21s-.04,0-.06,0h-1.62v-.36h.4l-1.31-.57-1.3.57h.42v.36h-2.24l3.05-1.58c.09.05.09.04,1.92.96h-.03Zm-6.37,0l.74.38h.83l-.58.24h.05-.21s-.04,0-.06,0h-1.63v-.36h.43l-1.3-.57-1.3.57h.42v.36h-2.24l3.05-1.58s.05.05,1.83.96h-.03Zm-8.27-.88c.1,0,.1-.05,1.9.89l.74.37h.73l-.54.23h.01-1.79v-.36h.39l-1.3-.57-1.3.57h.42v.36h-2.23l2.97-1.49Zm-6.37,0c.1,0,.11,0,1.89.89l.75.38s.05,0,.08.05v.16l.11.05h-.21s-.06.02-.08,0h-1c-.51,0-.58,0-.62-.14v-.1l.12-.13h.32l-1.3-.57-1.31.57h.46v.36h-2.23l3.02-1.52Zm-1.79,3.68v-.54h3.77v.54h-.6v5.89h-2.57v-5.89h-.6Zm4.13,6.3v.57h-.29c-.37,0-.54.25-.76.63-.18.49-.63.82-1.15.85h-.1c-.64,0-.91-.46-1.13-.85s-.42-.68-.88-.63h-.18v-.57h4.49Zm-2.34,3.05c.09,0,.1,0,1.92.9l.72.36h.73l-.55.23h.05-.1l-.1.05h-1.66v-.36h.4l-1.3-.57-1.31.57h.41v.36h-2.24l3.03-1.54Zm36.21-51.43l-.86,2.06c-.04.08-.04.17,0,.25.02.04.07.06.11.06.36-.02.71.08,1,.29.27.17.57.26.89.26.33.02.65-.07.92-.26.22-.14.46-.24.72-.28.33,0,.5,0,.56-.08.03-.08.03-.18,0-.26l-.88-2.09v-.22c0-.33,0-.83-.16-1-.06-.05-.15-.08-.23-.08h0c-.25.02-.49.02-.74,0-.47,0-1-.06-1.16.14-.09.1-.13.23-.12.36l-.05.85Zm.31-1h1.82v2.42h-1.82v-2.42Zm11.75-13.21v4.47l1.27-1.55v-3.14l.12-.24-1.16-.18-.23.64Zm3.27-5.43l.34.27.14-.29-.48-.47-1.65,3.25.52.64.43-.9-.53.25,1.23-2.75Zm-80.55,41.73h-3.62l.07.23h3.48l.07-.23Zm110.73-46.44c-.09.17-.09.38,0,.55.17.16.41.23.64.17h.05c.44.07.85.24,1.22.48.48.32,1.04.49,1.62.47.58.02,1.15-.15,1.64-.47.37-.24.79-.41,1.23-.48h.09c.37,0,.8,0,.94-.16.09-.18.09-.4,0-.58l-1.53-3.63v-.41c0-.62,0-1.47-.32-1.83-.13-.13-.31-.2-.49-.2h-2.83c-.18,0-.36.06-.49.19-.36.37-.34,1.21-.32,1.83v.48l-1.45,3.59Zm2.25-5.24h2.95v4h-2.95v-4Zm-17.34,67.89l-2,.5v2l2-.39v-2.11Zm8.36-69.86l-3.62-3.65-3.62,3.65h.74l3-2.74,3,2.74h.5Zm-16.43,100.79h1.72l42.93,5.31v-47.09l-3.4.79v-11.22h.46l3.53-4.2-1.48-1.92h-2.51v-24.27l4.2-2.78h-.3c-.38,0-21.56.05-34.22.1h-10.54l-12.85,12.58,12.73-11.91h40.34l4.33-.73-4.08,2.72h-40.43l-14.46,12.9v1.13h-.17l-1.09-.16-2.39-.36h0l1.91,2.43,1.78,1v1.78h0v14.75l14.52-8.47h7.94v-13.29l-.69-.82v-.71l-.48-1.29h10.18l-.5,1.46h-7.82v14.7h16.59v-13.29l-.69-.82v-.76l-.48-1.29h10.18l-.5,1.46h-7.82v14.7h17.35l1,1.16-.24.07h-44.24l-17.18,10.48,17.22-10.37h44.49l-3,3.68h-41.45c-5.11,2.76-14,7.66-21.92,12-5.17,2.84-10,5.5-13.34,7.31-.25.17-.39.45-.37.75l.14,27.52,1,.11h.31v-10.58l1.7-.22v11.09l1,.12v-11.38h.14l2.47-.32v12l1,.12v-12.26l2.37-.3v12.81l1,.12v-13.06l2.42-.3v13.65l1,.12v-13.9h.14l2.54-.32v14.53l1,.12v-14.8h.14l2.86-.36v15.54l1.94.23v-16h.14l2.72-.34v16.71l1,.12v-17h.14l2.58-.33v17.61l1,.12v-17.89h.14l2.95-.37v18.63l1.84.21h1.38v.48h-.59c-1.34-.04-2.68-.17-4-.37-.6-.07-1.17-.15-1.62-.19h0l-30.85-3.7h-85.34l-11.36,1.37c-10.29,1.23-23.08,2.77-24.23,2.88h-1.42v-.49h1.41l1.82-.21v-18.63l3.09.39v17.87l1-.12v-17.62l2.72.34v17l1-.12v-16.75l2.85.36v16l1.95-.23v-15.52l3,.38v14.8l1-.12v-14.5l2.68.34v13.9l1-.12v-13.7l2.42.3v13.06l1-.12v-12.81l2.36.3v12.23l1-.12v-12l2.61.33v11.41l1-.12v-11.14l1.7.22v10.67h.31l1-.11.14-27.51c.02-.3-.12-.59-.37-.76-3.38-1.84-8.33-4.56-13.59-7.45-7.78-4.27-16.61-9.12-21.66-11.85h-41.49l-3-3.68h44.49l17.94,10.73c-6.82-4.17-13.77-8.41-18-11h-44.45l1.07-1.23h17.34v-14.7h-7.81l-.5-1.46h10.21l-.48,1.29v.76l-.68.82v13.29h16.66v-14.7h-7.81l-.5-1.46h10.11l-.48,1.29v.76l-.68.82v13.29h7.86l14.48,8.45v-14.66h0v-1.78h.08l1.7-1,1.91-2.43-1.56.24-2.13.31v-1.13l-14.45-12.9h-40.48l-4-2.7,4.35.73h40.32v.05l12.78,11.8-12.85-12.58-40.47-.17h-4.8l9.54-7.21,5.74-7.33-.34.25-.19-.24,4-3.59,3,2.74h.6l-3.56-3.62.08-.11,13.47-18.75,11.08,33,3.94,5,16.15,16,1.08-1.38-.15-.19,2.32-2.09,1.76,1.58h.12l-2.4-2.11.06-.11,5.62-10.36.52,1.22.14-.07,4.8,7.87,7.86,16.31-.2.12h0l3.46.7h21.88c1,0,1.26,1.07,1.41,1.71.03.13.06.26.11.39.35.25.82.25,1.17,0,.23-.23.53-.36.85-.38h2.72l-.71,2.94c-.19.87-1.04,1.42-1.91,1.23,0,0-.01,0-.02,0h-.11l-.33-1.16c-.13-.6-.69-.63-1.48-.59h-.4v2.54h-.16l-26.93.07.93-3.26-6.79-7.75h-18.3l-.28-.22v8.08l3.82,2.66h15.63l2.81,2.67h38.25c-.08-.18-.12-.38-.12-.58v-.16h6.07v.16c0,.2-.04.4-.12.58h38.23l2.85-2.71h15.55l3.83-2.66v-8.08l-.28.22h-18.34l-6.79,7.75.93,3.26h-.21l-26.88-.07v-2.55h-1.26c-.49,0-.68.64-.86,1.35,0,.11-.05.21-.08.3v.1h-.06c-.86.2-1.72-.33-1.92-1.19,0-.01,0-.02,0-.04l-.71-2.94h2.64c.3.05.58.16.83.34.41.25.71.43,1.2,0,.04-.12.08-.25.1-.38.15-.64.4-1.71,1.42-1.71l21.91-.05,3.43-.69h0l-.2-.12,7.85-16.29,4.8-7.89.15.07.52-1.22,5.68,10.47-.09.08-2.31,2h.11l1.77-1.58,2.32,2.09-.15.19,1.08,1.38.09-.09,16.07-15.89,3.93-5,11.08-33,.18.25,13.43,18.74-.09.09-3.49,3.52h.59l3-2.74.1.1,3.89,3.49-.2.24-.34-.25,5.75,7.33,9.48,7.17.45-.31-9.83-7.33-5.14-6.58.17-.53-4.26-4.73-14.14-19.76-8.29,10.51-8.59,18.37h-.77l-1.86,4.77h-1.15l-1.37,3.64h-1.91l-2.11,5.38h1.78v1.94l-2.33,5v.7l-4.16,4.12-.62-1.11-1.88-2.69-6-11-5.88,9.71-7.9,16.35-2.86.59h-22c-.62-.25-1.28-.37-1.94-.37-.62,0-1.64.29-1.87,2.1h-1.61l-.11-.5h1.29l1.17-1.61h-4.81c-1.31-.99-2.83-1.65-4.45-1.93v-.05h-1.23v.05c-1.58.3-3.06.95-4.34,1.92h-4.81l1.17,1.61h1.25l-.11.5h-1.6c-.24-1.81-1.25-2.1-1.87-2.1-.67,0-1.33.12-1.95.37h-21.86l-3-.6-7.97-16.38-5.9-9.61-5.93,11-1.95,2.8-.58,1.06-4.16-4.12v-.7l-2.33-5v-1.94h1.78l-2.11-5.38h-1.91l-1.41-3.65h-1.16l-1.85-4.77h-.77l-8.67-18.49-8.22-10.39-14.09,19.71-4.33,4.73.18.52-5,6.47-10,7.44,4.77,3.16v24.27h-2.51l-1.44,1.89,3.53,4.2h.47v11.22l-3.4-.79v47.09l42.88-5.27h1.84l35.63-4.27,42.43.21,42.22-.21,35.75,4.26Zm12.28-59.44h-2.42v-6h2.42v6Zm0-6.11h-2.42v-5.95h2.42v5.95Zm2.55,6.11h-2.41v-6h2.41v6Zm0-6.11h-2.41v-5.95h2.41v5.95Zm14.82,6.11h-2.42v-6h2.42v6Zm0-6.11h-2.42v-5.95h2.42v5.95Zm2.55,6.11h-2.41v-6h2.41v6Zm0-6.11h-2.41v-5.95h2.41v5.95Zm-42.65,2.23l.25-.2v9l-1.25.82v1.95l-.38.24v-4.52c0-2.16.08-4.2-.11-6.83-.25-.81.25-1.17.95-1.66.37-.26.73-.54,1.06-.85l.25-.23v.34c.07.74-.33,1.44-1,1.75-.25.17-.48.35-.7.55v.41l.93-.77Zm-1.64-.4l.07-.4c.51-3.09.66-3.28.82-3.28h0c.18,0,.19.22.19.56-.02.31,0,.61.08.91.14-.46.2-.95.18-1.43,0-.35,0-.62.22-.64s.33,0,.83,2.19v.09l-2.39,2Zm5.73-2.83v9.46l-1.42.94v2l-.39.26v-10.82l-.17-.49h0c0-.43-.03-.85-.1-1.27v-.09l2.7-2.2v.32c.04.82-.42,1.58-1.17,1.92-.3.21-.59.43-.86.67v.41l1.41-1.11Zm.58-2.34l-2.42,2-.32.27.07-.41c.63-3.54.81-3.52,1-3.51s.2.24.2.57c-.03.34.01.68.12,1,.21-.51.29-1.05.25-1.6,0-.41,0-.65.23-.67s.36-.06,1,2.22v.1l-.13.03Zm3.54-.91v10l-1.56,1v2.16h-.07l-.09.06-.24.14v-11.38l-.19-.51h0c0-.45-.03-.9-.11-1.34v-.09l.07-.06,2.65-2.15.24-.19v.3c0,1.14-.54,1.55-1.27,2.06-.35.23-.69.48-1,.76v.49l1.57-1.25Zm.64-2.53l-3,2.46.08-.41c.64-3.53.85-3.74,1-3.74h0c.18,0,.2.25.2.6-.03.36.02.72.14,1.06.25-.54.36-1.14.3-1.74,0-.42,0-.67.24-.7s.39,0,1,2.32v.09l.04.06Zm3.38,14.27h-1.34l-.9.56-.21-.44,1-.61h1.45v.49Zm0-1.55h-1.34l-.9.58-.21-.44,1-.63h1.45v.49Zm0-1.55h-1.34l-.89.6-.22-.44,1-.64h1.47l-.02.48Zm0-1.54h-1.33l-.9.6-.22-.43,1-.66h1.47l-.02.49Zm0-1.55h-1.33l-.84.59-.23-.43.93-.65h1.47v.49Zm0-1.55h-1.33l-.89.64-.23-.43,1-.7h1.47l-.02.49Zm0-1.55h-1.33l-.83.61-.24-.42.92-.68h1.48v.49Zm0-1.55h-1.33l-.83.63-.24-.42.92-.7h1.48v.49Zm0-1.55h-1.33l-.84.58-.22-.42.92-.65h1.47v.49Zm0-1.55h-1.33l-.89.66-.24-.42,1-.73h1.48l-.02.49Zm0-1.55h-1.33l-.89.65-.24-.42,1-.72h1.48l-.02.49Zm0-1.55h-1.32l-.81.74-.28-.4.92-.82h1.49v.48Zm0-1.54h-1.32l-.81.74-.28-.39.92-.84h1.49v.49Zm0-1.55h-1.32l-.81.75-.28-.39.92-.84h1.49v.48Zm0-1.55h-1.32l-.81.74-.28-.39.92-.84h1.49v.49Zm0-1.55h-1.32l-.81.74-.28-.39.92-.84h1.49v.49Zm5.41,7.17l.15-.24c.59-.91,2.57-3.9,3.39-3.65.34.1.34.59.34.75,0,1.14.63,1.73,1.25,1.73s1.22-.55,1.22-1.77c0-.15,0-.61.33-.71h.11c.89,0,2.83,2.79,3.43,3.67l.16.24-10.38-.02Zm17.34,0l.15-.24c.59-.91,2.56-3.9,3.39-3.65.35.1.35.59.35.75,0,1.14.62,1.73,1.24,1.73s1.22-.55,1.22-1.77c0-.15,0-.61.33-.71h.11c.89,0,2.83,2.79,3.43,3.67l.16.24-10.38-.02Zm-22.78,70.74h-1.4l-1-.07v-.49l1,.07h1.39v.49Zm-2.37-7.74v-.49h2.37v.49h-2.37Zm2.37,1.06v.49h-2.37v-.49h2.37Zm-.15-2.61c-.67-.01-1.33,0-2,.06h-.16v-.49h.14c.69-.06,1.39-.09,2.09-.07h.15v.49h-.22Zm0-1.55h-2.16v-.48h2.38v.49h-.22Zm0-1.55c-.67-.01-1.33,0-2,.06h-.16v-.49h.14c.51-.07,1.65-.07,2.09-.07h.15v.49h-.22Zm0-1.55c-.67-.02-1.34,0-2,.08h-.17v-.49h.13c.7-.08,1.4-.11,2.1-.09h.15v.48l-.21.02Zm.15,12.39h-1.4l-1-.05v-.49h2.39v.54Zm0-1.54h-2.4v-.49h2.36l.04.49Zm8,5v1.95l-4.31-.49v-.13c-.14-4.35-.13-7.7-.13-11.58v-4.44c0-3.45,1-6.31,2.25-6.49.29-.04.58.06.8.26.89.77,1.49,3.15,1.49,5.91v2.85c0,9.56,0,11.67-.1,12.16h0Zm6.7,2.55v.16l-5.49-.62v-.14c.03-1-.02-2.01-.15-3v-14c0-4.49,1.59-6.92,3.05-6.93h0c1.2,0,2.63,1.7,2.71,6.51,0,2.31-.03,16.02-.14,17.99l.02.03Zm7.93.9v.16l-5.89-.67v-.14c.04-1.1-.02-2.2-.16-3.29v-15.21c0-4.86,1.7-7.49,3.26-7.5h0c1.3,0,2.83,1.85,2.91,7.05,0,2.58-.02,17.43-.14,19.57l.02.03Zm8.8,1v.16h-.17l-5.9-.67h-.14v-.14c.05-1.2,0-2.4-.17-3.59v-16.5c0-5.26,1.79-8.11,3.44-8.11h0c1.36,0,3,2,3.07,7.64.02,2.79-.02,18.87-.15,21.18l.02.03Zm10.47,1.15v.16l-7.55-.85v-.15c.05-1.3-.02-2.6-.21-3.88v-17.92c0-4.6,1.77-8.61,3.94-8.93.61-.08,1.22.12,1.66.55,1.42,1.23,2.33,4.29,2.33,7.81-.02,3.08-.07,20.72-.17,23.21Zm-40.8-32l2.62-.51v-2.92l2.73-.68v-10.15h.62v1.36h.15c.06-.63.29-1.23.65-1.75h-3.56l6.24-4.43.09.06,6.16,4.37h-3.57c.36.52.59,1.12.66,1.75h.61v.77h-1.3v-.38c.07-1.45-1.04-2.68-2.49-2.75-.05,0-.1,0-.15,0h0c-1.44-.02-2.62,1.13-2.64,2.58,0,.06,0,.12,0,.17v.38h-.84v7.9l.24-.06h.15l.64-.16v-1.12h2.42v.46h.14v-.46h1.7l.61-.15h-2.31v-5.95h2.41v5.92l11-2.74v-5.79h.62v1.36h.15c.07-.63.29-1.23.65-1.75h-3.6l6.24-4.43.09.06,6.16,4.37h-3.57c.37.52.59,1.12.66,1.75h.62v.77h-1.31v-.38c.06-1.26-.78-2.38-2-2.68.35.12.67.33.93.59.58.61.9,1.42.88,2.26v.16h-4.93v-.16c-.02-.84.29-1.65.87-2.26.27-.26.59-.46.94-.59-1.22.3-2.06,1.42-2,2.68v.38h-.84v3.58l1-.26v-2.77h2.42v2.17h.14v-2.13h2.41v1.53l11.89-3v.6h-.11l-4.49,1.1v.1l4.69-1.14v.46h-.12l-4.57,1.14v3.66l4.69-.91v.89h-.12l-40.94,7.93v26.74h-.31q-.16,0-.16-.55v-26.16h0l.04-.83Zm8.61-12.21h-1.45v-.14h-.16c0-2,1.29-2.91,2.46-2.91h0c1.16,0,2.42.89,2.47,2.85h0v.08c0,.08-.06.1-1.35.1l-1.97.02Zm.81.53v5.95h-2.42v-5.95h2.42Zm-10.62,31.53h-2.22v-.49h2.36v.48h-.14Zm-1.3-36.12h1.4v.49h-1.35l-.91.46-.18-.45,1.04-.5Zm-.86-.58l-.18-.45,1-.52h1.4v.49h-1.35l-.87.48Zm2.26,2.13v.49h-1.35l-.92.42-.16-.46,1-.45h1.43Zm-1.4,1.55h1.4v.49h-1.35l-.91.46-.18-.45,1.04-.5Zm0,1.55h1.4v.49h-1.35l-.92.41-.16-.47,1.03-.43Zm0,1.55h1.4v.5h-1.36l-.93.36-.14-.47,1.03-.39Zm1.4,1.55v.48h-1.37l-.93.31-.12-.47,1-.32h1.42Zm-1.4,1.54h1.4v.49h-1.36l-.93.36-.14-.47,1.03-.38Zm0,1.55h1.4v.49h-1.36l-.93.34-.13-.47,1.02-.36Zm0,1.55h1.4v.49h-1.36l-.94.33-.12-.48,1.02-.34Zm1.4,1.55v.49h-1.38l-.93.27-.1-.48,1-.28h1.41Zm-1.4,1.55h1.4v.49h-1.37l-.93.29-.12-.47,1.02-.31Zm1.4,1.55v.49h-1.4l-.92.21-.08-.47h.13c.65-.17,1.33-.24,2-.19l.27-.04Zm-1.42,1.55h1.42v.49h-1.38l-.93.25-.1-.47.99-.27Zm0,1.55h1.45v.49h-1.38l-.94.22-.09-.48.96-.23Zm.05-24.79h1.4v.49h-1.35l-.92.45-.17-.45,1.04-.49Zm-1-1l1-.51h1.4v.49h-1.35l-.91.47-.14-.45Zm1-2.06h1.4v.41h-1.35l-.91.49-.18-.45,1.04-.45Zm0,4.65h1.4v.49h-1.35l-.91.5-.18-.45,1.04-.54Zm-4.15.51h1.5l1.78,2.17h-1.69l-1.26-1.2-1.62,3.22-.28-.13,1.57-4.06Zm-.79,17.8l3.08-.8v.69h-.14c-.3,0-.45.65-.58,1.21s-.32,1.34-.81,1.38h-.08c-.1,0-.19-.03-.27-.09-.33-.33-.53-.76-.56-1.23-.08-.42-.18-.56-.25-.6-.06-.03-.12-.03-.18,0l-.21.09v-.65Zm-.07-13.71l1.2-2.67,1.68,1.31-1.38-.22-.42,1-1.08.58Zm3,12.16l-3,.81v-12.27l3.08-1.34v12.73l-.08.07Zm-6.27-13.72h1.26l1.5,1.83h-1.45l-1-1-1.31,2.6-.28-.13,1.28-3.3Zm2.31,15.89c.03.09,0,.2-.06.27-.05.05-.12.08-.19.08-.19.23-.3.52-.3.82-.1.93-.45,1.56-.86,1.57h0c-.26,0-.59-.22-.75-1.25-.07-.43-.17-.54-.21-.57-.04-.01-.09-.01-.13,0l-.21.08v-.67h.12l1.83-.5.81-.21v.22s-.04.08-.05.12v.04Zm-1.76-13.81l-.34.84-1,.46,1-2.28,1.49,1.16-1.15-.18Zm1.75.62v12.07l-2.72.74v-11.63l2.72-1.18Zm-6-.88h1.16l1.39,1.7h-1.35l-.91-.87-1.18,2.34-.28-.12,1.17-3.05Zm-.41,15.33h.11l1.82-.47.79-.21v.65h-.13c-.18,0-.32.17-.43.81-.09.88-.44,1.49-.86,1.5h0c-.21,0-.58-.16-.74-1.19-.07-.39-.16-.49-.21-.52-.04-.01-.09-.01-.13,0l-.21.08v-.65Zm-.34-12.17l1-2.13,1.41,1.1-1.15-.18-.3.76-.96.45Zm.28,11.55v-11l2.72-1.21v11.47l-2.72.74Zm-4.6-12.54h1.32l1.48,1.8h-1.48l-1-.94-1.28,2.54-.28-.13,1.24-3.27Zm-.56,14.51h.11l2.8-.73h.19v.63h-.13c-.19,0-.38.14-.51.78-.11.81-.53,1.42-1,1.44h0c-.23,0-.62-.15-.81-1.07-.05-.24-.13-.4-.23-.45-.06-.03-.14-.03-.2,0l-.21.08v-.68Zm-.12-11.15l1-2.24,1.47,1.14-1.2-.18-.33.82-.94.46Zm3.16,9.77l-3,.82v-10.22l3.1-1.35v10.69l-.1.06Zm-6.16-11.14h1.09l1.31,1.59h-1.29l-.83-.8-1.1,2.17-.28-.13,1.1-2.83Zm2.12,13.09c.04.08.04.18,0,.26-.05.06-.12.08-.19.08-.16.18-.25.42-.26.66-.08.79-.41,1.32-.79,1.34h0c-.2,0-.53-.14-.69-1.05-.06-.34-.14-.42-.18-.43s0,0-.11,0l-.21.09v-.62l2.53-.65v.23l-.1.09Zm-1.62-11.26l-.28.7-.88.43.91-2,1.35,1.05-1.1-.18Zm1.62.37v10l-2.49.68v-9.63l2.49-1.05Zm-5.57-.44h1.09l1.31,1.59h-1.29l-.83-.8-1.1,2.17-.28-.13,1.1-2.83Zm-.41,12.57h.11l1.5-.39.88-.23v.61h-.14c-.21,0-.33.49-.43.88s-.27,1-.65,1h-.11c-.07,0-.13-.02-.19-.05-.23-.13-.32-.44-.41-.78s-.15-.52-.26-.57,0,0-.09,0l-.21.09v-.56Zm-.25-9.61l.91-2,1.35,1.06-1.1-.18-.28.71-.88.41Zm.25,9.16v-9.07l2.49-1.09v9.47l-2.49.69Zm-9.38-7h.87l1,1.27h-1l.29.23.14-.06v7.77l-1.69.47v-7.44l-.23.11.33-.74-.34.67-.28-.13.91-2.15Zm1.38,9.55v.56h-.14c-.09,0-.19.52-.23.68-.08.43-.17.84-.45.84h-.08s-.08.01-.12,0c-.18-.09-.24-.36-.31-.67-.02-.17-.08-.34-.16-.49l-.21.09v-.56l1.7-.45Zm-.51,4.62l.43.33-.95-.14-.2.51-.78.38.34-.75-.34.68-.28-.13.83-2.16h.87l1.05,1.28h-.97Zm3-.45h0l.47.36-1-.16-.24.61-.83.4.83-1.83.65.51-.61-.59-.9,1.84-.28-.13,1-2.5h1l1.18,1.44-1.27.05Zm1-4.78c.02.08,0,.16-.05.23-.05.05-.12.08-.19.08-.11,0-.24.44-.33.74-.14.46-.28.94-.65,1h-.13c-.34,0-.48-.41-.58-.72s-.19-.51-.29-.48c-.06.05-.14.05-.2,0-.07-.05-.1-.14-.07-.22v-.22h.13l1.5-.38.91-.24v.23s0-.1,0-.05l-.04.03Zm-.86-9.13l.39.31.47-.2v8.34l-2.49.68v-7.94h0l.8-1.78.65.5-.61-.58-.95,1.88-.28-.12,1-2.5h1l1.18,1.43-1.16-.02Zm3.44,13.38l.5.39-1.05-.17-.26.65-.84.41.85-1.9.8.62-.76-.73-1,2-.29-.13,1-2.63h1l1.23,1.5h-1.18Zm-1.58-5.21v-8.5l2-.87-1.09-.17-.28.7-.88.43.91-2,1.35,1.05.49-.21v8.9l-2.5.67Zm2.49-.24v.58h-.13c-.13,0-.27.11-.37.61-.08.69-.41,1.19-.8,1.2h0c-.19,0-.52-.12-.68-.91-.05-.28-.13-.35-.16-.36s-.05,0-.13,0l-.21.08v-.58l2.48-.62Zm-1-9.54l-.83-.8-1.1,2.17-.28-.13,1.1-2.83h1.09l1.31,1.59h-1.29Zm2.9,14.6l-.28.7-.88.43.91-2,1.35,1.06-1.1-.19Zm.61-.24l-.83-.8-1.1,2.16-.28-.12,1.1-2.83h1.09l1.31,1.59h-1.29Zm2.92-.36l-.3.75-.9.44.94-2.1,1.4,1.09-1.14-.18Zm.66-.26l-.89-.85-1.17,2.31-.28-.13,1.16-3h1.14l1.37,1.66h-1.33Zm3.09-.33l-.31.79-.94.46,1-2.19,1.44,1.12-1.19-.18Zm.71-.27l-.95-.9-1.18,2.42-.28-.12,1.22-3.16h1.18l1.44,1.74-1.43.02Zm3.85-.49l-.36.91-1,.49,1.09-2.42,1.56,1.22-1.29-.2Zm.83-.3l-1.1-1.05-1.42,2.82-.28-.13,1.38-3.6h1.35l1.6,2-1.53-.04Zm3.37-.53l-.36.9-1,.49,1.08-2.4,1.55,1.2-1.27-.19Zm4-.48l-.41,1-1.08.53,1.19-2.67,1.69,1.32-1.39-.18Zm1-.34l-1.26-1.21-1.62,3.23-.28-.13.53-1.37h-1.52l-1.08-1-1.41,2.79-.28-.13,1.37-3.56h1.34l1.58,1.93,1-2.68h1.57l1.74,2.11v-.09h.13c.7-.16,1.41-.23,2.13-.23h.14v.48h-1.39l-.94.16v-.32l-1.75.02Zm2.59,1.23h1.43v.43h-1.39l-.95.14-.05-.48.96-.09Zm0,1.54h1.43v.49h-1.39l-.95.12-.05-.49.96-.12Zm1.35,17.5h-.35c-.58,0-1.17-.03-1.75-.1h-.14l.05-.49h.16c.66.07,1.33.1,2,.08h.15v.49l-.12.02ZM56.61,129.69h2.42v5.95h-2.52l.1-5.95Zm0,6.1h2.42v6h-2.52l.1-6Zm-2.56-6.1h2.42v5.95h-2.42v-5.95Zm0,6.1h2.42v6h-2.42v-6Zm19.9-6.1h2.42v5.95h-2.42v-5.95Zm0,6.1h2.42v6h-2.42v-6Zm-2.56-6.1h2.42v5.95h-2.42v-5.95Zm0,6.1h2.42v6h-2.42v-6Zm19.38-4.29c-.09.44-.12.89-.11,1.34h0l-.19.51v11.44l-.24-.14-.1-.07h-.07v-2.16l-1.56-1v-10l1.56,1.23v-.49c-.31-.28-.65-.53-1-.76-.74-.51-1.32-.92-1.27-2.06v-.3l.24.19,2.65,2.15.06.06.03.06Zm3.83,3.95c-.19,2.46-.24,4.93-.17,7.39v4.35h-.26c-.09-.08-.14-.49-.16-2.15l-1.39-.92v-9.46l1.43,1.13v-.45c-.27-.25-.55-.47-.86-.67-.75-.34-1.22-1.1-1.18-1.93v-.31l2.7,2.2-.11.82Zm3.68,2.16c-.04.23-.06.45-.06.68,0,.34-.05.68-.15,1v4.24c0,1.86.08,3.63,0,5.79h-.46v-1.87l-1.25-.82v-8.99l.25.2,1,.76v-.41c-.22-.2-.46-.38-.71-.55-.67-.31-1.07-1.01-1-1.75v-.31l2.35,1.91.03.12Zm-2.36-2.23c.46-2,.66-2.19.8-2.19h0c.2,0,.21.29.21.64-.02.48.05.97.19,1.43.07-.3.09-.6.08-.91,0-.29,0-.54.19-.56s.31,0,.85,3.28l.06.4-2.44-2,.06-.09Zm-3.93-3.24c.6-2.28.84-2.23,1-2.22s.23.26.23.67c-.04.55.04,1.09.25,1.6.11-.32.15-.66.12-1,0-.33,0-.56.2-.57s.33,0,1,3.51l.08.41-.32-.27-2.42-2-.08-.06-.06-.07Zm-4.28-3.38c.65-2.36.91-2.33,1-2.32s.23.28.23.7c-.06.6.05,1.2.3,1.74.13-.34.18-.7.15-1.06,0-.35,0-.58.2-.6s.35,0,1,3.74l.08.41-2.99-2.61h.03Zm-3.34-9.3h1.5l.91.84-.27.39-.82-.74h-1.32v-.49Zm0,1.55h1.5l.91.84-.27.39-.82-.74h-1.32v-.49Zm0,1.55h1.5l.91.84-.27.39-.82-.74h-1.32v-.49Zm0,1.55h1.5l.91.84-.27.39-.82-.74h-1.32v-.49Zm0,1.55h1.5l.91.82-.27.4-.82-.74h-1.32v-.48Zm0,1.54h1.48l1,.72-.23.43-.89-.66h-1.34l-.02-.49Zm0,1.55h1.48l1,.73-.23.42-.89-.66h-1.34l-.02-.49Zm0,1.55h1.48l.92.65-.22.42-.84-.58h-1.34v-.49Zm0,1.55h1.48l.93.7-.24.42-.84-.63h-1.33v-.49Zm0,1.55h1.48l.92.68-.23.42-.83-.61h-1.34v-.49Zm0,1.55h1.48l.94.67-.23.43-.89-.64h-1.34l.04-.46Zm0,1.55h1.48l.92.65-.22.43-.84-.59h-1.34v-.49Zm0,1.55h1.48l1,.66-.22.43-.9-.6h-1.34l-.02-.49Zm0,1.55h1.48l1,.64-.22.44-.9-.6h-1.34l-.02-.48Zm0,1.54h1.47l1,.63-.21.44-.91-.58h-1.34v-.49Zm0,1.55h1.49l1,.6-.2.44-.9-.56h-1.35l-.04-.48Zm-15.62-15.81c.59-.88,2.54-3.67,3.43-3.67h.11c.33.1.33.56.33.71,0,1.22.63,1.77,1.22,1.77s1.24-.59,1.24-1.73c0-.16,0-.65.35-.75.83-.25,2.8,2.74,3.38,3.65l.15.24h-10.35l.14-.22Zm-17.34,0c.59-.88,2.54-3.67,3.43-3.67h.11c.33.1.33.56.33.71,0,1.22.63,1.77,1.22,1.77s1.24-.59,1.24-1.73c0-.16,0-.65.35-.75.84-.25,2.8,2.74,3.38,3.65l.15.24h-10.37l.16-.22Zm56.28,15.73c-.06.05-.13.07-.2.06v2.85h-1.14v-2.85h0v2.85h-1.13v-2.85h-.27v-.55h2.84v.2c-.03.1-.03.18-.1.24v.05Zm8.13,0c-.05.05-.13.07-.2.05v2.85h-1.14v-2.85h0v2.85h-1.14v-2.85h-.26v-.55h2.84v.2c-.03.11-.03.19-.1.26v.04Zm5.91,2.36l-.12-.21c-.09.22-.29,1.08-.29,4.27v.07l-.06.05s-.08.01-.12,0h-.08c-.19-.09-.21-.44-.17-2.45v-2.22h0c0-.27.02-.53.08-.79.07-.28.2-.34.3-.34.35,0,.51.71.51,1.19l-.05.43Zm1.9,1.43l-.17-.15c-.09.22-.29,1.08-.29,4.27v.08h-.06s-.08.02-.12,0c-.03,0-.05,0-.08,0-.18-.09-.21-.43-.17-2.45v-2.21h0c0-.27.02-.53.08-.79.07-.27.2-.33.3-.33.35,0,.51.7.51,1.18v.4Zm96.7-4.29h2.84v.2c0,.15,0,.23-.07.29s-.13.05-.2.06v2.85h-1.14v-2.85h0v2.85h-1.15v-2.85h-.27v-.55Zm-8.13,0h2.84v.2c0,.15,0,.23-.06.3-.05.05-.13.07-.2.05v2.85h-1.17v-2.85h0v2.85h-1.14v-2.85h-.27v-.55Zm-5.84,2.52c0-.48.16-1.19.51-1.19.09,0,.23.06.3.34.06.26.08.52.07.79v2.22c0,2,0,2.36-.17,2.45h-.09s-.08.01-.12,0l-.06-.05v-.07c0-3.19-.19-4.05-.29-4.27l-.16.14v-.36Zm-1.9,1.42c0-.48.16-1.18.5-1.18.1,0,.24.06.31.33.06.26.08.52.07.79v2.21c0,2,0,2.37-.18,2.47h-.08s-.08.01-.12,0h-.06v-.07c0-3.19-.2-4.05-.29-4.27l-.16.15v-.43Zm26.6-24.43v-3.18l-.68.33,1.24-2.75,1.51,1.18.2-.42h-.41l-1.31-1.29-1.7,3.36-.3-.09,1.63-4.22h1.56l.24.29,1.53-4h1.51l.93-2-.78,1.56-.28-.13,1.66-4.2h.74l8.74-18.61,7.82-9.95-10.77,32.85-15.78,17,2.7-5.73Zm-57.18,22.82c0-.41.16-.81.47-1.09.22-.19.52-.27.81-.22l.92.15-.92.15c-.44.13-.74.54-.72,1v.15h-.56v-.14Zm-5.12-1.3h4.32l-.5.66h-3.82v-.66Zm-4.87-2h.31c1.17.06,2.31.43,3.29,1.07l-.18.25c-2.07-.97-4.46-.97-6.53,0l-.18-.25c.98-.65,2.12-1.02,3.29-1.08h0Zm-8.38,2.62l-.5-.66h4.31v.66h-3.81Zm-2.59-.67c.29-.05.59.03.82.22.31.28.48.68.47,1.09v.15h-.6v-.15c.02-.46-.28-.88-.73-1l-.91-.15.95-.16Zm-71.93-55.67l8.75,18.64h.75l1.63,4.22-.28.13-.79-1.58.94,2h1.51l1.52,4,.25-.29h1.55l1.63,4.22-.28.13-1.69-3.36-1.32,1.23h-.4l.19.42,1.52-1.18,1.24,2.76-.68-.33v3.18l2.71,5.78-15.82-17.07-10.73-32.79,7.8,9.89Zm-30.82,113.16c-.2,1.29-.27,2.6-.21,3.91v.15l-7.55.85v-.16c-.16-2.64-.2-20.34-.16-23.22.1-6.11,2.06-8.28,3.7-8.28h0c2,0,4.18,3.12,4.22,8.86v17.89Zm8.87.76v2.27h-.13l-5.9.67h-.17v-.16c-.13-2.43-.16-18.61-.13-21.24,0-3.37.8-6.23,2-7.29.33-.32.79-.48,1.25-.42,1.82.27,3.24,3.86,3.24,8.18v4.21c.06,10.59,0,13.2-.16,13.78h0Zm8.66-2.16c-.15,1.1-.2,2.21-.16,3.32v.14l-5.9.67v-2.25c-.1-.48-.15-2.79-.12-14.62v-2.85c.08-5.21,1.61-7.05,2.91-7.05h0c1.57,0,3.25,2.63,3.27,7.49v15.15Zm7.51-.59c-.14,1.01-.19,2.04-.15,3.06v.11l-5.5.62v-2.09c-.1-.48-.15-2.7-.12-13.61v-2.52c.08-4.82,1.51-6.52,2.71-6.52h0c1.46,0,3,2.44,3,6.93l.06,14.02Zm5.38,2.44v.13l-4.31.49v-.17c.02-1,0-2-.09-3v-13.79c.05-3.72.89-6.12,2.16-6.12h0c1.17,0,2.36,2.22,2.38,6.44v4.45c-.01,3.87,0,7.22-.12,11.57h-.02Zm2.68-27.36v27.14l-.13.11h-.1c-.22-.1-.34-1.1-.24-20.47v-6.26l-41.07-7.95v-.89l4.69.91v-3.7l-4.69-1.14v-.46l4.69,1.14v-.1l-4.62-1.16v-.6h.19l5.48,1.37,3,.74,3.25.81v-1.53h2.42v2.13h.14v-2.17h2.41v2.77l1,.26v-3.51h-.85v-.16c.05-.81-.23-1.6-.78-2.2-.48-.52-1.15-.81-1.85-.82h0c-.7,0-1.37.3-1.85.82-.55.6-.83,1.39-.78,2.2v.16h-1.32v-.77h.62c.07-.63.29-1.23.65-1.75h-3.56l6.24-4.43.09.06,6.16,4.37h-3.57c.36.52.59,1.12.66,1.75h.15v-1.36h.62v5.79l11,2.74v-5.92h0v-.69c-.13-1.31.72-2.53,2-2.85-.35.05-.69.16-1,.35-.85.56-1.31,1.54-1.2,2.55v.16h-1.32v-.77h.62c.07-.63.29-1.23.66-1.75h-3.47l6.25-4.43.08.06,6.16,4.37h-3.56c.36.52.58,1.12.65,1.75h.15v-1.36h.62v10.18l2.73.68v2.92l2.86.56-.24.16-.04.19Zm-29.52-12.68c0-2,1.29-2.91,2.46-2.91h0c1.15,0,2.41.89,2.46,2.85h0v.08c0,.08-.06.1-1.35.1h-3.39v-.14l-.18.02Zm32.86,38.29c-.57.08-1.15.11-1.73.1h-.53v-.49h.16c.67.02,1.34,0,2-.08h.17v.49l-.07-.02Zm-2.1-3.5h2.16v.49h-2.3v-.51l.14.02Zm-.16-1.06v-.48h2.37v.48h-2.37Zm.16,2.61c.67.02,1.33,0,2-.05h.16v.49h-.15c-.4.05-1.18.06-1.71.06h-.53v-.49h.23Zm5.24-16.88l-.42-1-1.38.22,1.68-1.32,1.2,2.67-1.08-.57Zm4,.34l-.36-.9-1.27.19,1.55-1.2,1.08,2.4-1-.49Zm4.2.84l-.37-.91-1.27.2,1.56-1.22,1.08,2.42-1-.49Zm4.51.64l-.32-.79-1.17.18,1.44-1.12,1,2.19-.95-.46Zm3.73.55l-.29-.75-1.15.18,1.41-1.09.94,2.1-.91-.44Zm1.1.45l-1.16-2.31-.89.85h-1.34l1.37-1.66h1.15l1.15,3-.28.12Zm-.45-17v9.63l-2.49-.68v-10l2.49,1.05Zm-2-1.29l1.36-1.05.91,2-.89-.43-.28-.7-1.1.18Zm2,11.42v.62l-.21-.09h-.11s-.11.09-.18.44c-.15.9-.48,1-.68,1h0c-.39,0-.71-.55-.8-1.34-.09-.53-.21-.66-.37-.68h-.13v-.59l2.48.64Zm2.86,6.93l-.28-.7-1.09.17,1.28-1.04.91,2-.82-.43Zm1,.42l-1.09-2.12-.84.8h-1.28l1.31-1.59h1.09l1.09,2.83-.28.08Zm-.4-16v9.07l-2.49-.69v-9.37l2.49.99Zm-2-1l1.31-.99.91,2-.89-.42-.28-.71-1.05.12Zm.27,10.11l1.63.42h.12v.6l-.21-.09h-.12s-.11.09-.17.4c-.15.84-.49,1-.68,1h0c-.38,0-.71-.53-.8-1.27-.1-.53-.24-.62-.37-.64h-.13v-.6l.73.18Zm4.47,7l-.25-.65-1.06.17,1.31-1,.85,1.9-.85-.42Zm4.46.85l-.95-1.88-.62.59.66-.51.83,1.83-.83-.4-.24-.61-1,.16.49-.37h-1.23l1.18-1.44h1l1,2.5-.29.13Zm-2.68-5.7v-.56l.74.19,1.63.42h.12v.7l-.21-.08h-.13s-.13.15-.16.32c-.16.73-.48.85-.67.85h0c-.38,0-.71-.49-.8-1.15-.1-.46-.24-.54-.37-.56l-.15-.13Zm5.51,6l-.35-.69.34.76-.77-.38-.2-.51-.95.14.43-.33h-1l1-1.28h.87l.83,2.16-.2.13Zm-2-5.07v-.56l1.7.44v.56l-.21-.09c-.08.15-.13.32-.15.49-.07.31-.13.58-.31.67-.04.01-.09.01-.13,0h-.07c-.28,0-.37-.41-.46-.84,0-.19-.13-.66-.22-.68h-.15Zm.52-10.11h.86l.84,2.15-.28.13-.35-.68.34.75-.23-.11v7.44l-1.7-.47v-7.77l.15.06.29-.23h-1l1.08-1.27Zm-3.12-1.62h1l1,2.5-.28.12-.95-1.88-.61.58.65-.5.8,1.78h0v7.94l-2.49-.68v-8.31l.46.2.4-.31h-1.15l1.17-1.44Zm-3.38-1.77h1.09l1.09,2.83-.28.13-1.09-2.17-.83.8h-1.32l1.34-1.59Zm1.48,2.87v8.5l-2.49-.68v-8.9l.5.21,1.35-1.05.91,2-.89-.43-.27-.7-1.1.17,1.99.88Zm0,8.91v.58l-.22-.04h-.12s-.11.08-.17.36c-.15.79-.48.91-.67.91h0c-.39,0-.72-.51-.81-1.21-.09-.49-.23-.58-.37-.6h-.13v-.58l2.49.58Zm-1.56,3.3h1l1,2.63-.28.13-1-2-.76.73h-1.22l1.26-1.49Zm-2.37-16.76l1.09,2.83-.28.13-1.1-2.15-.84.8h-1.28l1.32-1.61h1.09Zm-4.54-1.76h1.09l1.09,2.83-.28.13-1.09-2.17-.84.8h-1.28l1.31-1.59Zm-3.84-2h1.24l1.26,3.27-.28.13-1.28-2.54-1,.94h-1.42l1.48-1.8Zm-1.3,13.1v-10.66l3.1,1.35v10.19l-3.1-.88Zm3.1,1.41v.62l-.21-.08c-.07-.04-.14-.04-.21,0-.13.12-.21.28-.22.45-.19.92-.59,1.07-.81,1.07h0c-.47,0-.88-.63-1-1.45-.13-.63-.33-.74-.51-.77h-.13v-.59h.19l2.62.68.28.07Zm-.79-11.61l-.32-.82-1.21.18,1.48-1.14,1,2.24-.95-.46Zm-1.08,15.54h1.21l1.21,3.16-.26.16-1.23-2.44-.95.9h-1.39l1.41-1.78Zm-2.2,2.72l-1.42-2.82-1.1,1.05h-1.53l1.6-2h1.34l1.39,3.6-.28.17Zm-1.09-19.65v11l-2.72-.74v-11.41l2.72,1.15Zm-2.09-1.55l1.41-1.1,1,2.13-.92-.45-.3-.76-1.19.18Zm.16,12.71l1.81.47h.12v.66l-.21-.08h-.13s-.14.13-.21.53c-.17,1-.53,1.18-.74,1.18h0c-.42,0-.77-.62-.87-1.51-.11-.63-.24-.77-.42-.8h-.13v-.66l.78.21Zm1.52-14.84l1.17,3-.28.12-1.18-2.34-.91.87h-1.35l1.38-1.7,1.17.05Zm-3.72-1.86l1.29,3.34-.28.13-1.31-2.6-1,1h-1.45l1.5-1.83,1.25-.04Zm-2.31,14.81v-12.02l2.72,1.18v11.63l-2.72-.79Zm2.72,1.42v.67l-.21-.08s-.09-.01-.13,0c-.05,0-.14.14-.22.57-.15,1-.48,1.25-.74,1.25h0c-.42,0-.76-.64-.86-1.58-.11-.66-.24-.81-.42-.84h-.13v-.66l.79.2,1.81.47h.11Zm-.64-13.27l-.33-.84-1.22.18,1.49-1.16,1,2.28-.94-.46Zm-3.87-5.49l1.57,4.06-.28.13-1.61-3.19-1.26,1.2h-1.74l1.78-2.17,1.54-.03Zm-2.32,16.25v-12.73l3.07,1.34v12.23l-3.07-.84Zm3.07,1.58v.69l-.21-.09c-.05-.03-.12-.03-.17,0-.07,0-.17.18-.25.6-.19,1.12-.59,1.3-.82,1.3h0c-.46,0-.86-.7-1-1.68-.12-.7-.29-.87-.5-.9h-.13v-.69l3.08.77Zm-1-14.24l-.41-1-1.39.22,1.69-1.31,1.2,2.67-1.09-.58Zm-5.33-8.72h1.52l.93.5-.18.45-.92-.49h-1.35v-.46Zm0,1.55h1.51l.93.48-.17.45-.91-.47h-1.36v-.46Zm0,1.55h1.51l.93.46-.17.45-.91-.45h-1.36v-.46Zm0,1.55h1.48l.93.51-.19.45-.91-.5h-1.35l.04-.46Zm0,1.55h1.51l.94.49-.18.45-.92-.48h-1.35v-.46Zm0,1.55h1.51l.93.48-.17.45-.91-.46h-1.36v-.47Zm0,1.55h1.5l.94.43-.16.46-.92-.42h-1.36v-.47Zm0,1.55h1.51l.93.48-.17.45-.91-.46h-1.36v-.47Zm0,1.55h1.5l.94.41-.16.47-.92-.41h-1.36v-.47Zm0,1.55h1.49l.94.38-.14.46-.92-.36h-1.37v-.48Zm0,1.55h1.48l.94.31-.11.47-.94-.31h-1.37v-.47Zm0,1.54h1.49l.94.36-.13.47-.93-.36h-1.37v-.47Zm0,1.55h1.49l.94.34-.13.47-.93-.34h-1.37v-.47Zm0,1.55h1.48l.95.33-.13.48-.93-.33h-1.37v-.48Zm0,1.55h1.45l1,.27-.1.48-1-.27h-1.37l.02-.48Zm0,1.55h1.48l.94.3-.11.47-.94-.29h-1.37v-.48Zm0,1.55h1.41l1,.22-.08.49-.17-.05c-.61-.16-1.23-.22-1.86-.17h-.3v-.49Zm0,1.55h1.45l1,.27-.1.48-.17-.05c-.52-.19-1.08-.27-1.63-.22h-.52l-.03-.48Zm0,1.55h1.41l1,.23-.09.49-.16-.05c-.57-.16-1.17-.22-1.76-.19h-.4v-.48Zm0,1.55h.15c.71-.03,1.42.01,2.12.13h.13v.09l1.73-2.11h1.5l1,2.68,1.58-1.93h1.33l1.38,3.56-.28.13-1.38-2.75-1.08,1h-1.52l.53,1.37-.28.13-1.62-3.23-1.26,1.21h-1.65v.32l-1-.16h-1.37v-.44Zm0,1.55h.15c.71-.02,1.42.02,2.12.13h.13v.47l-1-.14h-1.38l-.02-.46Zm0,1.55h.15c.71-.02,1.41.01,2.11.11h.13v.48l-1-.12h-1.38v-.47Zm0,1.55h.15c.7-.01,1.4.02,2.1.09h.14v.48l-1-.1h-1.39v-.47Zm0,1.54h1.41l1,.08v.49l-1-.08h-1.39l-.02-.49Zm0,1.55h1.41l1,.06v.49l-1-.06h-1.4v-.49Zm0,1.55h1.41l1,.08v.49l-1-.08h-1.39l-.02-.49Zm0,1.55h2.37v.48h-2.37v-.48Zm0,1.55h2.37v.49h-2.37v-.49Zm0,1.54h2.36v.49h-2.38l.02-.49Zm184.51-93.92l-2.25,1.65h4.58l-2.33-1.65Zm-91.59,146.24c.12-3.43-2.56-6.31-5.98-6.43-.14,0-.28,0-.42,0-1.14-.04-2.26.19-3.29.68l.25-4.81h8.59v-3.18h-11.62l-.42,9.52,2.43,1.79c.89-.6,1.93-.92,3-.91,2.35,0,3.82,1.36,3.82,3.34,0,1.84-1.5,3.34-3.35,3.33-.09,0-.18,0-.27-.01-2.09-.05-4.13-.63-5.93-1.7v3.46c1.87.92,3.92,1.41,6,1.44,4.47,0,7.19-3,7.19-6.52Zm-36.66,6.1v-19.84h-3.11l-5,2.61v3.43l4.73-2.38v16.18h3.38Zm5-5.61c0,3.54,2.55,6,7.17,6,4.36,0,7.05-2.49,7.05-5.67,0-2.2-1.22-3.79-3.48-4.93,1.65-.91,2.71-2.62,2.8-4.5,0-3.2-2.41-5.58-6.49-5.58s-6.37,2.24-6.37,5.44c-.05,1.76.88,3.41,2.41,4.28-1.88.94-3.08,2.86-3.09,4.96Zm7-11.73c2.21,0,3.29,1.27,3.29,2.8,0,1.33-1,2.38-2.47,3.15l-1.89-.77c-1.16-.36-1.98-1.38-2.1-2.58.01-1.39,1.09-2.6,3.17-2.6Zm-1,8.19l2.18.9c1.93.8,2.58,1.76,2.58,2.89,0,1.45-1.27,2.75-3.62,2.75s-3.8-1.19-3.8-3.2c0-1.53,1.04-2.69,2.66-3.34Zm34.93,6.4c-1.68-.05-3.32-.47-4.82-1.22v3.37c1.53.64,3.16.98,4.82,1,5.27,0,8.3-2.8,8.3-11.05,0-6.06-2.72-9.63-7.36-9.63-3.8,0-6.92,2.61-6.92,6.54s2.64,6.55,6.26,6.55c1.67.06,3.31-.52,4.57-1.62-.01,4.27-1.6,6.06-4.86,6.06h0Zm.91-7.4c-1.95-.1-3.44-1.77-3.34-3.71.1-1.8,1.54-3.24,3.34-3.34,2.52,0,3.79,1.9,3.79,5.35-.98,1.06-2.35,1.68-3.8,1.7h.01ZM458.72,95.02h0l-9.4,3.57v45.17h9.42l-.02-48.74Zm7.47,48.74h9.42v-32.9h-9.41v32.9Zm4.7-39.43c3.19,0,5.78-2.59,5.78-5.78s-2.59-5.78-5.78-5.78-5.78,2.59-5.78,5.78c-.02,3.19,2.55,5.8,5.74,5.82.01,0,.03,0,.04,0v-.04Zm149.94,0c3.19,0,5.78-2.59,5.78-5.78s-2.59-5.78-5.78-5.78-5.78,2.59-5.78,5.78c-.02,3.19,2.55,5.8,5.74,5.82.01,0,.03,0,.04,0v-.04Zm-4.71,39.43h9.42v-32.9h-9.42v32.9Zm-202.51,10.6c-3.2,0-5.79,2.59-5.79,5.79s2.59,5.79,5.79,5.79c3.2,0,5.79-2.59,5.79-5.79h0c0-3.2-2.59-5.79-5.78-5.79h-.01Zm-4.71,51h9.42v-32.9h-9.42v32.9Zm135,0h9.42v-32.9h-9.42v32.9Zm4.71-51c-3.2,0-5.79,2.59-5.79,5.79,0,3.2,2.59,5.79,5.79,5.79,3.2,0,5.79-2.59,5.79-5.79h0c0-3.2-2.59-5.79-5.78-5.79h-.01,0Zm-156.61,5.4v14.79c-2.68-2.41-6.17-3.72-9.77-3.68-9.13,0-15.37,7.6-15.37,17.42s6.24,17.56,15.37,17.56c3.61.04,7.1-1.28,9.77-3.7v2.83h9.42v-48.81h0l-9.42,3.59Zm0,29.11c-.24,5.09-3.51,8.1-7.64,8.1s-7.62-3.23-7.62-8.68,3.4-8.61,7.62-8.61,7.4,3.08,7.64,8.05v1.14ZM58.61,253.76c.29-.32.44-.73.44-1.16.77-11.32-4.51-21.55-12.43-25.58-.93,7.16.67,20.58,10.77,26.84.33.25.79.25,1.12,0h-.12c-.73-6.14-3.41-11.73-6.77-16.78-1.11-1.68-2.07-3.45-2.88-5.29,1.87,3.6,4.35,6.46,6.26,10,2.02,3.7,3.25,7.77,3.61,11.97Zm233.8-36.45c-.23.19-.47.44-.74.43s0-1.08-.09-2.3c-.15-2.21-.8-5-2.37-4.72-1.6.54-2.08,2.95-2.61,4.36-.25.72-.51,2.39-1.1,1.44s-1.52-.11-1.73.95c-.5,1.43-.22,4.31-.54,5.42-.15.22-.34,0-.61-.13-.35-.22-.81-.16-1.1.14-1,.78-.67,2.75-.56,3.21s.79,1.12.74,1.44c-.21.27-1.23-.59-1.63-.09-.58.59-.45,1.86-.26,2.57s1.12,1.52,1.05,1.84-.32.19-.62.42-.43,1.44-.58,1.9c-.21.43-.47.84-.77,1.22-.17.22-.47,2,.39,1.72.83-.88,1.55-1.85,2.15-2.89,2.47-3.9,4.87-8.12,5.81-12.66-.66,4.71-4.18,11.34-7.3,15.91,1.46-.21,5.33-3.54,6.1-4.79.11-.86-.79,0-.69-.58,1.24-.81,3.68-1.27,4.86-2.63.76-.58,1.91-2.92.47-3.1-.42,0-.91,0-1.09-.23,0-.48,3.94-4.61,4-6.4.33-.83-.1-3.27-1.18-2.49v.04Zm-2-142.86c0,.18-.73,0-1.56,0-4.13.06-5.1,3.39-1.33,5.31.61.33,1.42.71.75,1.24-.5.36-.61,1.05-.25,1.55.13.19.32.33.54.4,1.25.64,3.23.22,3.44.55s-.35.69-.41,1c-.21,1.08,1.25,1.41,1.94,1.08.32-.12.9-.89,1.09-.82.12.26-.68,1.5-.43,1.88.25.67,1.1.51,1.6.29s1.22-1.24,1.41-1.17,0,.35.13.67.82.46,1.08.61.51.71.62.8c.58.45,1.4,0,1.12-.74-.77-1.28-1.82-2.68-2.75-3.95-1.53-1.75-3.43-3.14-5.56-4.07.1.03.19.06.29.08,3.23,1.17,5.8,3.77,7.75,6.52.25.35.48.68.71,1,.09-.7.02-1.41-.21-2.08-.43-1.39-.54-3.15-1.41-4.24-.53-.09-.17.82-.52.72-.27-1.22,0-3.65-.62-5-.16-.54-.57-.98-1.1-1.17-1-.24-.83,1.43-1.23,1.79-.1.09-.3-.27-.58-.82-.81-1.53-2.6-4.87-4.48-3-.46.48.1.98-.02,1.53v.04Zm22.87,84.71c-.51-1.28-1.51.47-2,.38-.26-.05.42-2.19.64-4.38.13-1.52.38-4.21-1.57-4.45-.63,0-.57,1-1,1.37-.14.12-.48-.78-1.07-1.6-1.08-1.48-2.81-3.09-4-1.69s-.3,5-.12,6.21c.19,1.51-.71.43-1.38,1.19-.93,1,.28,3.49.93,4.46s1.38,1.67.24,2c-.44.17-.76.55-.87,1-.24.99.16,2.02,1,2.59.31.22,1.16.12,1.27.37s-.26.26-.59.45c-1.46.57-.71,2.15.19,2.66.49.32,1.63.12,1.72.39s-.17.37-.3.75.32,1.28.42,1.69c.02.46,0,.92-.06,1.38,0,.42.6,1.57,1.12.82.58-3.92.68-7.89.31-11.83-.12-1.68-.42-3.34-.92-4.95,1.44,4.12,1.5,8.72,1.48,13.06,0,1.16-.08,2.34-.16,3.45,1.05-1.28,2.57-5.9,2.74-7.76-.31-.66-.64.59-.83.13,0-.32.8-1.36,1.11-1.87.97-1.72,2.35-3.95,1.71-5.86v.04Zm-4.47-63.06c-.23.47-.41-1.1-.73-.15.08,1.9.12,6.35.71,7.8,1.09-4.39,1.91-8.85,2.44-13.35-.03,2.26-.25,4.5-.67,6.72-.39,2.23-.9,4.71-1.29,6.82,0,.27-.08.66.44.71.94-.36.69-1.24,1.06-2.08.18-.35.79-1.08.77-1.5-.47-1.62.44-.51,1.46-.67.73-.21,1.24-.87,1.27-1.63,0-.83-1.1-1.51-1-1.75s.87.13,1.18,0c1.1-.6,1.62-1.91,1.23-3.1-.14-.8-.89-1.23-1.1-1.86s.32-1.11.75-2.19c.51-.81.27-2.42,1.33-2.82.02-.21.02-.43,0-.64,0-.6-.5-1.3-1-1.17-.32.15-.59-.26-.55-1.32,0-2.54.56-6.15-1-8.47-1.36-1.61-2.57.83-3.33,2.75-.42,1.06-.62,2.18-.76,2.05-.43-.38-.5-1.54-1-1.35-.7.24-1,1-1.14,1.91-.4,1.68,1,7.78.76,8.15-.23,0-.56-.42-.88-.7s-.66-.4-.9.3c-.29,1.3-.19,2.67.3,3.91.77,1.08,1.33,2.3,1.66,3.59v.04Zm7.72,17.12c0,.74.41,2.81.19,3-.48,0-1.25-1.88-1.81-.57-1,2.54,1.11,5.87,1.51,8.19-.26.4-.32-.91-.72-.34-.23,1.14.12,4.23.14,5.75,0,1.36.14,2.31.33,2.4,1.54-5.15,2.45-10.6,4.13-15.71-1.44,5.19-2.32,10.84-3.64,16,0,.3-.1.67.45.81,1-.21.76-1.16,1.17-2,.2-.34.87-1,.86-1.43-.41-1.77.5-.47,1.55-.44.77-.08,1.36-.72,1.39-1.49,0-.88-1.14-1.78-1-2s.91.28,1.24.19c1.04-.37,1.66-1.44,1.46-2.52-.02-.58-.24-1.13-.64-1.55-1-.74-.21-1.15.5-2.24,1.3-1.41,2.42-5.63.49-6-.36.05-.6-.31-.48-1.23.3-1.48.87-6.7-.38-8.28-1.33-1.91-2.74.34-3.64,2.15-.5,1-.79,2.08-.92,1.94-.39-.34-.35-1.6-1-1.58-2.24.82-1.22,4.92-1.17,6.91v.04Zm4,2c.14-.39,0-.07-.07.23.03-.08.05-.16.08-.24h-.01Zm-7.09,18c-.49-.35-.38.83-.69.57.07-1.52,1-4.09.78-5.84,0-.68-.24-1.33-.7-1.83-.86-.74-1.17,1.19-1.65,1.39-.61-1.46-.59-4.89-1.82-6.26-.39-.58-1.17-.75-1.77-.38-.58.33-.19,1.15-.47,1.64-.09.18-.66-.38-1.44-.72-3.3-1.61-5.39.63-3.55,3.85.39.73.82,1.44,1.29,2.12.34.54.19.88-.18,1s-1.31,1-.29,2.4c.65,1.07,2.51,1.62,3.07,2.32,0,.59-.91.85-.81,2,0,1.29,1.39,1.46,1.73,1.46s1.06-.56,1.24-.42-.91,1.08-.81,1.74.94,1,1.47.94c.93-.1,2-1.51,1.6.1,0,.38.68.84.89,1.11.17.36.31.74.4,1.13.27.51,1.08.78,1.24,0-.32-1.83-.85-3.61-1.59-5.31-.93-2.7-2.28-5.24-4-7.52l-.24-.26s.17.15.25.24c3,3.42,4.78,7.95,6.17,12.24.51-1.55.33-6.17-.11-7.72h-.01Zm-7.37,48.67c-.57-.3-.78.72-1.29.91-.17.07-.25-1-.6-2-.63-1.91-1.86-4.19-3.35-3.38s-1.37,3.33-1.58,4.83c-.09.78,0,2.37-.81,1.77s-1.51.16-1.57,1.61c-.13,2.1.88,4.54.69,5.05s-.94-.41-1.72.7c-.66.86-.2,2.41.22,3.06.22.36,1.05.66,1.07,1s-1.28-.07-1.63.58c-.28.8-.14,1.68.37,2.35.65.91,2.27.86,1,1.79-.23.31-.08,1.43-.11,1.88-.11.47-.26.93-.45,1.38-.07.43,0,.87.2,1.26.43.43.66,0,.82-.2,2-5.16,4-11.06,4-16.77.08,1,.08,2,0,3-.53,4.81-1.67,9.54-3.39,14.06,1-.33,1.95-2.12,2.75-3.11.43-.62,3-4.08,1.59-3.58-.19.11-.37.24-.39,0,1-1.21,3.28-2.51,4.15-4.15.44-.67.66-1.46.64-2.26-.13-1.5-1.54-.18-2-.49-.16-.31.87-1.93,1.13-2.6.73-2.05,2.42-5.27.27-6.7h-.01Zm-1.13-85c-.17.47-.27,1-.49,1.19-.85-1-1.5-4.3-3.11-5.26-.6-.42-1.42-.29-1.86.29-.51.51.05,1.15-.12,1.78-.06.19-.74-.11-1.61-.16-1.58-.09-3.72.28-4,2.3-.19,1.77,1.51,3.18,2.87,3.91.3.21.37.39.2.63-.72.52-1.15,1.77,1.22,2.49-1.48.19-1.77,1.72-1.12,2.12.21.14.46.19.71.15.77,0,2.55-.49,3-.19.05.21-.49.61-.55.93-.22.78.23,1.6,1,1.85.33.05.68.03,1-.07.35-.12,1-.94,1.18-.85s-.73,1.43-.51,2.09,1.15.66,1.68.46,1.31-1.34,1.51-1.23.05.41.12.78.86.61,1.13.81.49.89.61,1c.23.24.58.33.89.22.23-.13.37-.38.37-.64-1.01-2.42-2.36-4.67-4-6.71-.69-.86-4-5.15-4.06-5.16s2.37,2.77,2.68,3.15c.85,1,1.9,2.17,2.66,3.25,1,1.44,2.29,3.16,3.13,4.67.11-.83.06-1.68-.16-2.49-.27-1.57-.62-3.12-1.07-4.64-.16-.42-.22-.64-.52-.47s-.07.85-.36.74c-.2-1,.22-2.19-.21-3.67-.05-.93-.2-1.86-.45-2.76-.18-.96-1.38-1.8-1.75-.48v-.03Zm-7.27-33.1c-.38.28-1.57-1-1.64.46-.15,2.52,2.59,4.54,3.62,6.41-.1.48-.52-.65-.69.06.38,1.45,1.77,6.14,2.5,7.1.09-5.34-.94-12.42-1-16.92.16,4.6,1.17,9.22,1.28,13.83,0,1.11.1,2.22.27,3.32,0,0,.18.35.49.18.74-.65.33-1.36.45-2.29.08-.4.46-1.3.34-1.65s-.34-.45-.26-.72,1-.11,1.44-.44c.73-.46,1.34-2.18.07-2.7s0-.53.54-.86c.26-.27.47-.59.62-.94.46-1.29-.04-2.72-1.2-3.44-.3-.12-.51-.09-.6-.39-.15-.6.86-2.73.61-5.17-.18-1.45-.69-2.64-1.7-2.3-.28.24-.58.05-.77-.84-.2-1.16-.47-2.31-.8-3.44-1.18-4.23-3.82-5.54-4.28.33-.11,1.12,0,2.18-.18,2.13-.47-.15-.82-1.17-1.25-.8-1.48,1.24.15,4.63,1.05,6.54.31.67,1.22,2.29,1.1,2.57v-.03Zm-48.65,202.22c1.35-1.21,2.21-2.9,1.42-4.76-.29-.74-.74,0-1.18-.3,0-.93.5-4.39.08-5.82-1-5-3-.86-4,1.43-.31.6-.55.43-.65-.1-1.49-3.62-2.55,4.56-2.92,5.05-.25.21-.39-.66-.89-.89-1.13.18-2.25.44-3.34.8-1.35.52-1.7,2.53-1.31,3.52.31.66,2.15,1.83.07,1.38s-2.39,1.84-1.7,3c.19.53,1.5,1.11,1.55,1.6s-.39.26-.74.55-.35,1.59-.44,2c-.22.89-.79,1.23-.7,2,.15,1.43,1,1.14,1.44,0,1.14-2.22,2.52-4.3,4.1-6.23l1.08-.21c1.9-2.03,3.39-4.41,4.4-7-.06.19-.15.52-.24.75-1.02,2.48-2.42,4.78-4.16,6.82l-1,.2c-1.58,2.08-2.92,4.34-4,6.72,1.14-.35,2.1-1.5,3.21-2.21.62-.35,1.1-.88,1.78-1,1-.35,2-.86,1.23-1.37-.17-.07-.34-.11-.25-.37.49-.25,1.8.31,2.52.26,1.29.06,2.72-.26,3.18-1.74.21-.49.06-1.06-.37-1.37-.33-.27-.74-.45-.84-.78s1.41-.77,2.67-1.93ZM10.77,125.84c-.91-1.95-1.58-3.99-2-6.1-1.53-6.79.08-13.82,0-20.67.44,8.86-1.57,18.28,2.26,26.65l-.12.11c.47-.16.84-.53,1-1,5.18-11.78,2.69-24.32-3.64-31.55-3.93,7.6-6.44,21.45,1.46,32,.22.37.62.58,1.04.56Zm.4,21c.31.18.69.18,1,0,3.78-2.28,6.75-5.7,8.48-9.77,3.22-7.72,1.6-17.33,1.6-17.33-8.65,3.88-13.15,14.25-11.89,25.66.01.52.24,1.02.63,1.37,2.18-2.9,4.6-6.31,5.66-10.16,1.35-3.87,2-8.29,3.59-12.05-1.34,4-1.83,8.34-3.15,12.33-1.08,3.77-3.12,7.2-5.92,9.94h0ZM54.41,37.66c8.07-1.86,13.14-9.28,19.37-14.12-4.67,4.06-8.51,9.69-14.1,12.56-.89,1-7.13,1.87-4.33,2.43,12.3.73,20.29-11.9,22.64-18.1-4.97-.55-9.97.79-14,3.75-4.72,3.47-7.92,9.07-9.42,12.1-.33.38-.22,1.94-.16,1.38ZM9.41,172.66c.34.27.82.31,1.2.1-1.38-1.59-2.52-3.37-3.39-5.29-3-6.43-2.64-14.08-4-20.93,2.26,8.65,1.76,18.75,7.7,26l-.1.15c.49-.35.81-.89.9-1.48,2.89-12.82-.8-24.9-10.16-30.35-2.29,7.7-3.66,23.6,7.83,31.76l.02.04Zm77.65,100.8c-1-11.14-7.19-20.05-16.41-21.62.18,6.62,3.31,20.39,15,23.47.41.13.87-.02,1.12-.37l-.12.05c-1.91-8-8.25-12.88-13.09-19,5.36,5.66,11.73,10.67,13.3,18.83.22-.42.29-.9.2-1.36Zm-23-13.18c-7.61-3.92-16.3-1.77-16.3-1.77,0,0,3.64,8.5,11.24,12.42,5.33,2.75,11.19,2.51,14.22,2.13,3.46-.92-3.85-.93-4.93-1.79-6.16-1.9-10.5-6.92-15.77-10.31,3.76,1.85,6.82,4.89,10.39,7,3.38,2.4,7.78,3.42,11.5,4.24.21-.48.17-1.03-.1-1.47-1.51-2.7-4.88-7.7-10.21-10.45h-.04Zm-25.9-29.9c-6.31-5.45-14.53-4.28-14.53-4.28,0,0,2,10,8.32,15.46,3.56,2.92,8.05,4.48,12.66,4.39.44,0,.84-.23,1.09-.59-8.52-1.54-12.74-10-18-15.85,5.79,5.38,9.94,13.5,18.18,15.52v.17c.26-.51.31-1.11.13-1.66-1.08-3.28-3.4-9.34-7.81-13.16h-.04Zm-13.24-16.89c-8.84-3.4-11.54-13.64-16-21,5.09,7,7.82,16.8,16.24,20.67v.2c.36-.55.51-1.22.41-1.87-.48-3.91-1.87-11.19-5.81-16.28-3.52-4.35-8.72-6.99-14.31-7.25,0,0,.43,11.74,6.06,19,3.05,3.83,7.45,6.35,12.29,7.06.44.02.85-.18,1.12-.53Zm-8.31-107.24c6.42-4.38,8.43-12.51,12.29-18.85-3.41,6.61-5.39,15-12.14,19.09.27.25.66.32,1,.17,3.88-1.49,7.19-4.16,9.47-7.63,4.25-6.6,4.36-15.76,4.36-15.76-4.52,1.31-8.43,4.19-11,8.14-3,4.63-3.92,10.51-4.22,13.62-.07.49.06.98.36,1.37l-.12-.15Zm4.73-19.05c-3-8.16,1.15-16.73,2.82-24.73-1.09,8.08-5,16.44-2.52,24.63l-.14.09c.53-.13.99-.46,1.28-.93,6.88-9.76,8-21.39,2-29.17,0,0-6.31,7.95-7.23,16.54-.44,4.53.57,9.08,2.89,13,.16.33.49.55.86.57h.04Zm14.14,138.69c.38-.21.66-.58.77-1,1.69-4.91,2.27-10.13,1.69-15.29-.87-5.41-3.34-10.43-7.09-14.42-3.23,7.36-4.86,20.86,3.36,30.34.24.38.7.56,1.13.43h-.13c.62-4.28.45-8.65-.49-12.87-.85-4.21-2.51-8.07-3.07-12.37.89,4.22,2.61,7.94,3.54,12.16.98,4.28,1.06,8.71.25,13.02h.04Zm2.28-172.88c.3-8.19,6.08-14.66,10-21.4-2.52,5.41-6.72,10.13-8.51,15.88-.73,1.8-.83,4-1.39,5.57.44.1.9-.03,1.23-.34,9.06-6.8,12.56-17.5,10.82-25.78,0,0-7.18,4.73-10.62,12.19-1.81,4.08-2.53,8.56-2.08,13,0,.36.19.7.51.88h.04Zm-19.15,136.94c.42,0,.81-.25,1-.62,2.65-4.33,4.15-9.27,4.35-14.34.22-9.28-4.7-17.54-4.7-17.54-3.34,4.69-5.25,10.25-5.49,16,.04,5.38,1.29,10.68,3.65,15.52.18.47.59.82,1.08.94.23-1.91,1.21-4.19,1.35-6.37,1-6.73-.87-13.58-.73-20.33.57,8.85,3.18,18.27-.51,26.74Zm252.86,53c-.46-.65-.92.33-1.42.21-.08-.82-.08-1.64,0-2.46-.61-8.39-3.74-6.2-5.31-.16-.26.77-.56.71-.77.22-1.58-2.46-1.75,3-1.83,3.94-.14,1.26.12,3-.78,1.89-.88-.88-1.73.52-1.71,1.55-.06.54-.06,1.09,0,1.63.07.53.66,1.39.59,1.73s-1.1-1-1.49-.53c-.56.48-.53,1.89-.4,2.7s.94,1.93.86,2.26-.31.12-.61.28-.5,1.45-.68,1.9c-.59,1.05-1.22,1.17-1.07,2.57.12.55.49.49.49.49,4.09-4.09,6.94-9.26,8.21-14.9,0,.21-.09.6-.15.87-1,5.38-4.1,10.29-7.42,14.55-.11.17.44.07.68,0,1.63-.53,5.38-3.07,5.44-3.65.14-.9-.76-.16-.64-.76.06-.31,1.37-.29,2.78-.73,1.55-.35,2.78-1.55,3.16-3.09.13-.84-.22-1.09-.63-1.23s-.9-.14-1.06-.44c.31-.92,2-2.15,2.72-3.31,1.18-1.6,2.24-3.72.99-5.51l.05-.02Zm-165,46.31c.09-.49-.09-.99-.46-1.32-3.56-3.66-8-6.35-12.89-7.82-8.6-2.31-16.78,1.07-16.78,1.07,0,0,5.75,7.12,14.35,9.42,4.88,1.16,9.98,1.02,14.79-.42,3.19-1.39-4.26-.22-5.39-.8-6.63-.71-12.24-4.55-18.38-6.76,4.23,1.06,8.06,3.31,12.17,4.67,3.98,1.61,8.6,1.82,12.59,1.96Zm186.14-48.64c-.99-.23-2.01-.23-3,0-1.06.17-1.93.62-2,.37-.15-.74.57-1.62,0-2.24-2.56-2.18-4.66,3.17-5.76,4.77-.44.74-.75,1.21-.86,1.08-.45-.48,0-2.68-1.33-2.41-2.59,1-2.38,5.48-3.58,7.39-.47,0,.29-1-.41-1.08-.09,0-.27.12-.5.36-1.27,1.64-3.46,3.43-4.3,5.29,3.34-1.04,6.59-2.34,9.73-3.88,1.5-.8,3.05-1.5,4.63-2.11-4.29,2-8.46,4.72-13,6.32-.5.23-1,.26-1.34.65-.14.26-.12.58.05.82.23.34.6.55,1,.58.18,0,.79-.37,1.17-.33s1.33.45,1.61.16c.86-1.77.78.68,1.52,1.64,1.05,1.41,2.54,1.37,2.49-.71,0-2.29.51-.13,1,.62,1.58,1.74,3.53.37,3.36-1.74,0-.5-.14-.85.08-1.07s.93,0,1.83.06c1.31.24,2.65-.08,3.71-.88.75-.7,1.09-1.72.91-2.73-.31-.81-1-1.17.05-2,.91-.67,1.76-1.41,2.55-2.21,1.93-1.58,3.23-5.84.39-6.72Zm15.8-29.46c-1,.34-1.74.94-1.83.67-.27-.74.24-1.79-.45-2.36-.56-.57-1.48-.58-2.05-.02-.04.04-.08.09-.12.13-1.3.95-2.7,7.19-3.16,7.05-.64-.94-.76-3.77-2.45-1.76-1.37,2-.7,5.63-1.33,7.61-.46,0,.09-1.07-.6-1.07-.43.14-1.33,2.3-1.79,3.07-.51,1-1.7,3-1.58,3.73,3.32-2.01,6.54-4.2,9.63-6.56.9-.68,1.85-1.28,2.85-1.81-1.82,1.22-3.55,2.56-5.2,4-2.15,1.8-4.64,3.58-6.85,5.13-.17.33-.38.44.07,1.11,1.09.95,1.32,0,2.15-.18.37,0,1.37.22,1.56-.13s.09-.75.36-.75.9,1.64,1.47,2.17,1.6,1.17,2.14.43c.47-.54-.27-2.35,0-2.67.27,0,.81,1.24,1.2,1.55s2,1.31,2.72-.31c.66-1.27-.29-2.27-.07-3.09,1-.49,3.23.18,4.58-1.06,1.16-.89,1.39-2.55.5-3.71,0,0,0-.01-.01-.02-.63-.47-.27-1.41.4-2,.65-.73,1.23-1.52,1.73-2.36,2.41-3.85,1.16-8.75-3.83-6.79h-.04Zm14.67-68.53c-.74.75-1.23,1.67-1.35,1.46-.38-.65-.16-1.85-.79-2.05-.83-.26-1.37.23-1.74,1.07-.86,1.41-.85,8.13-1.23,8.21-.52-.21-1-2.47-1.84-1.47-.46.63-.69,1.39-.66,2.17-.18,2,.73,4.82.69,6.66-.35.27-.16-1.06-.71-.71-.41,1.57-.69,3.17-.84,4.79-.21,1-.52,3.29-.25,3.42,2.84-4.54,5-9.67,8.07-14.07-1.68,2.82-3.2,5.72-4.56,8.71-.95,1.94-2.09,4.05-3,5.88,0,.37-.22.61.31,1,1.08.33,1.06-.69,1.66-1.3.28-.23,1.12-.52,1.19-.95-.14-2,.77,0,1.76.39.57.2,1.53.26,1.78-.72.27-.59-.72-2.09-.63-2.48.21-.15.92.75,1.3.84,1.77.45,2.68-1.86,1.7-3.55-.22-.39-.45-.63-.37-.94.73-.95,2.76-1.57,3.42-3.18.75-1.39.61-3-.37-3.58-.91-.38-.16-1.72.21-2.77,1.62-3.31,1.63-12.24-3.71-6.83h-.04Zm-1.89,37c-.93.44-1.66,1.13-1.73.87-.23-.8.29-1.88-.31-2.34-.57-.47-1.41-.4-1.89.17-.04.05-.08.1-.11.16-1.49,1.62-2.14,5.79-3.25,7.43-.47-.43-.38-2.8-1.5-2.21-2.28,1.66-1.45,6.26-2.18,8.47-.42.09.1-1.08-.54-1-1,1.26-1.66,3.44-2.49,4.94-.42.71-.68,1.51-.75,2.34,4-3,7.52-6.86,11.6-9.75-3.25,2.55-7.53,7.38-11.29,10.46.07.1-.43.47.09,1.13,1,.8,1.23-.2,2-.5.35-.08,1.27,0,1.46-.35s.08-.77.34-.81.82,1.54,1.33,2,1.48,1,2,.12-.24-2.6,0-2.64.73,1.12,1.08,1.38c.34.23.74.37,1.15.4.66.02,1.23-.43,1.38-1.07.65-1.72-.33-2.5,0-3s2.61,0,4.27-1.55c1.1-.9,1.34-2.49.54-3.67-.36-.32-.43-.87.1-1.58.75-.92,1.42-1.9,2-2.93,2.12-3.47,1.91-9.11-3.26-6.46h-.04Zm-76.7,104.65c-.99-.56-2.07-.92-3.19-1.07-1.2-.22-2.31-.14-2.26-.38.12-.67,1.25-1.17.85-1.94-.46-.8-1.4-1.19-2.29-.93-1.7,0-6.66,3.75-7.1,3.43-.23-.65,1-2.27-.43-2.51-2.56-.51-4.73,3.45-6.51,4.58-.24-.11-.07-.28.07-.47s.25-.39-.1-.57c-.7.07-1.38.29-2,.62l.39-.33c-1.15.87-3,1.83-3.33,3.32,4.23-1.7,8.47-.78,13-.88.67,0,1.23.09,1.81.17-2.46-.1-4.93-.07-7.39.08-2-.13-4,.13-5.9.76-.45.18-1,.28-1.22.65-.28.68,1.08,1,1.44.92.18,0,.67-.34,1-.31s1.4.34,1.6.17.09-.44.36-.38.35.35.61.68c.58.87,2.07,1.91,2.92,1.77.36-.07-.32-1.28-.1-1.27.77,1.02,1.78,1.82,2.95,2.33,1.31,1,2.9,1.56,4.54,1.62,1.38.11,2.94-1.06,2.54-2.31-.21-.47,0-.91,1-1.09,2.48-.44,6.32-1.32,7.57-3.92.53-.97.18-2.18-.79-2.72-.01,0-.03-.02-.04-.02Zm-95.95,16c-.02-.56-.32-1.08-.8-1.37-2.87-2-8.69-5.29-15.43-5.6-9.63-.44-17.52,5.43-17.52,5.43,0,0,7.73,6.58,17.36,7,6.75.31,12.64-2.48,15.56-4.18.43-.22.72-.64.8-1.11-2.15.81-4.4,1.33-6.69,1.56-7.19.86-14-2.06-21-3,2.36.11,4.7.45,7,1,6.78,1.81,13.9,1.89,20.72.22v.05Zm-26-10.05c-2.24-3-4.88-6.57-8.2-8.69-3.1-2.31-6.49-3.67-9.43-6.27,4.77,3.29,10.22,5.08,14.09,9.69,1,.57,4.52,7.39,3.49,3.75-3.85-10.51-12.1-17.53-21.41-16.69,0,0,2.79,9.25,8.91,14.44,3.26,2.72,7.33,4.27,11.57,4.41.44,0,.83-.27.97-.69v.05Zm29.43-4.16c-5.81-3.47-12.44-1.83-12.44-1.83,0,0,2.77,7.26,8.58,10.73,3.3,1.84,7.11,2.57,10.86,2.09.4-.04.75-.3.9-.67l-.09.08c-4-5.7-10.83-7-16.62-10.06,6,2.47,13,3.88,16.75,9.84.11-.37.06-.76-.12-1.1-1.18-2.39-3.77-6.7-7.83-9.13v.05Zm66-1.7c0-.35,1.85-.58,3.58-1.42s3.26-2.27,2.79-4.42c-.08-.42-.3-.47-.55-.47-1.45.11-.38-.71.07-2.37,1.69-5.52.42-9.2-4.25-3.17-.51.52-.74.3-.73-.27-.07-1-.71-1.69-1.78-.39-1,1-2.08,3.94-2.81,4.73-.34.14-.29-.77-.81-1.12-1.35-.11-2.7-.13-4.05-.05-1.5.29-2.53,1.68-2.36,3.2.11.33.29.64.53.9.71,1,.27,1-.8.51-.55-.28-1.19-.32-1.77-.12-.92.56-1.31,1.71-.91,2.71.08.57,1.45,1.49,1.39,2-.15.34-.51.17-1,.38s-.8,1.49-1,1.93-1,1.05-1.09,1.27c-.27.42-.43,1.64.31,1.74.27.06.4-.11.6-.19,1.86-2.02,3.95-3.82,6.22-5.37.59-.55,1-.36,1.85-.34,2.62-1.5,4.92-3.51,6.78-5.89-1.87,2.59-4.22,4.79-6.92,6.48l-1.19-.06c-2.28,1.65-4.36,3.56-6.2,5.69-.13.12.21,0,.32,0,1.73-.41,3.81-1.51,5.64-1.93.81.09,1.63-.06,2.37-.41.48-.71-.6-.55-.3-1.06.24-.19,1.3.42,1.8.56,1.65.63,4,1.11,5.13-.6.78-1.25-.7-1.66-.91-2.5l.05.05Zm-10.36,13.33c-1.09-.72-2.31-1.22-3.59-1.5-1.36-.36-2.64-.38-2.57-.63.19-.39.46-.73.8-1,1.25-1.31-1.1-2.57-2.27-2.3-1.94-.15-7.85,3.49-8.35,3.1-.22-.76,1.27-2.42-.34-2.82-2.88-.8-5.61,3.34-7.74,4.44-.27-.15-.07-.31.1-.51.68-1.11-1.09-.57-2.43-.16,1.07-.69-.41.18-.87.43-.89.64-2.61,1.54-2.62,2.57,5-1.44,9.72,0,14.85.31.77.1,1.4.21,2.06.36-2.81-.35-5.64-.56-8.47-.63-2.7-.43-5.47-.2-8.07.65.13,0-.63.3.05.93,1.24.82,1.48.22,2.58.2.43.05,1.59.51,1.82.35s.14-.49.44-.39c.43.29,1.07,1.57,1.59,1.92.72.58,2.89,2.07,2.34.34-.1-.36-.21-.7-.07-.63.82,1.21,1.93,2.19,3.23,2.86,1.27,1.16,5.7,3.59,7.81,1.33,1.08-1.24-.69-2.25,1.52-2.52,2.82-.25,7.27-.8,8.92-3.6.66-1.03.36-2.41-.67-3.07-.02-.01-.03-.02-.05-.03Zm-33-3.23c1.53.4,4.21,2.86,6,.86.8-1-.5-1.52-.61-2.26,0-.3,1.61-.27,3.15-.77.76-.22,1.45-.64,2-1.2.49-.4,1.19-2.5.18-2.76-1.24-.08-.3-.65.18-2,1.7-4.36,1-8.05-3.47-3.3-.46.39-.64.16-.61-.32-.23-2.75-2.64.64-3.17,1.69-.46.78-.81,1.43-1,1.48s-.21-.7-.64-1.07l-2.4-.47c-1.26-.47-2.66.18-3.12,1.44-.11.3-.16.62-.15.94,0,.36.81,1.22.64,1.56-.44.1-1.79-1.09-2.46-.7-.83.4-1.23,1.36-.93,2.23,0,.51,1.17,1.47,1.09,1.91-.16.27-.45.07-.87.2s-.76,1.19-1,1.54c-.63.81-1.53,1-1.21,2.16.59,1,1.33-.22,1.91-.6,1.59-1.26,3.31-2.36,5.12-3.27l1.1.22c2.09-.9,4-2.16,5.66-3.72-1.15,1.24-2.47,2.3-3.92,3.16-.62.38-1.24.71-1.9,1.05l-1-.2c-2.07,1.14-3.97,2.55-5.68,4.18,1.63.06,3.56-.83,5.27-.92.85.19,2.76.24,2-.61-.16-.16-.31-.26-.16-.45ZM31.73,68.82c7.32-2.63,11.32-10,16.65-15.15-4,4.26-7,9.84-11.87,13.1-.75,1-6.54,2.57-3.8,2.72,11.55-.87,17.63-12.9,19.28-19.14-4.72.11-9.24,1.91-12.74,5.09-4,3.73-6.44,9.18-7.51,12.11-.19.45-.19.97,0,1.42v-.15Zm236.59,200.64c-.9-.49-1.89-.81-2.91-.92-1.07-.18-2-.07-2-.3,0-.65.95-1.16.5-1.84-1.29-1.77-3.12-.52-4.58.43-2.33,1.48-3.75,3.57-3.23.86,0-.49-.08-.94-.72-1.05-2.3-.39-3.68,3.4-5.08,4.49-.22-.1-.09-.26,0-.44s.16-.38-.16-.54c0-.29-2.41,1.16-1.38.32-.91.85-2.39,1.87-2.47,3.21,3-1.57,6.1-1,9.36-1.16,1.12-.04,2.25,0,3.37.1-2.37-.12-4.83.2-7.22.32-1.58,0-4.4.49-5.19,1.47,0,0-.1.31.29.58.32.2.7.28,1.07.24.16,0,.55-.33.88-.32s1.26.28,1.41.12,0-.42.26-.36,1.85,2.38,3.38,2.2c.29-.07-.45-1.2-.25-1.19.77.92,1.75,1.64,2.85,2.12,1.07.82,4.75,2.52,6,.38.62-1.09-.88-1.82.74-2.28,1.82-.29,3.54-1.03,5-2.16,1.37-1.08,1.75-3.36.08-4.28Zm11.21-230.55c.39.55.2.85-.2.92-.86.28-1.12,1.19-.29,2.18s2.78,1.83,3.36,2.57c0,.57-1,.58-.93,1.75s1.46,1.65,1.83,1.7,1.18-.39,1.36-.22-.16.32-.43.62c-1.2,1-.12,2.08,1,2.14,1,.06,2.24-1.19,1.73.36,0,.37.69.94.9,1.25.16.39.28.79.36,1.2.19.46,1.1,1,1.34.22-.77-4.95-2.8-9.61-5.88-13.56-.29-.29.05,0,.16.13,3.34,3.48,5.1,8.33,6.33,12.91.68-1.38.75-6.17.3-7.66-.51-.42-.43.76-.76.46-.08-.08,0-.47.18-1,.5-1.92,1.53-4.79,0-6.45-.94-.82-1.27,1-1.82,1.15-.54-.64-.91-7.95-4.15-6.69-.63.23-.18,1-.45,1.5-.09.16-.77-.41-1.65-.79-3.34-1.61-6.12-.15-3.81,3.28.47.7.98,1.38,1.52,2.03h0Zm-5.63,15.92c0,1.3,1.42,2.09,2.44,2.59.59.27,1.37.55.78,1.1-.44.33-.54.95-.21,1.4.15.21.38.35.63.39,1.25.61,3.45-.31,3.25.51-.14.39-.47.73-.27,1.17.41.59,1.21.78,1.84.42.29-.13.76-.89.95-.83s0,.34-.15.72c-.54,1.27.34,1.79,1.4,1.2.69-.38,1.33-2,1.39-.58.1.3.8.37,1.05.48s.52.62.64.7c.65.38,1.24-.07,1-.77-2.11-2.83-4.71-5.71-8.19-6.78.3.05.6.13.89.23,3.13,1.15,5.6,3.57,7.65,6.11.05-1.34-1-4-1.66-5.39-.13-.21-.24-.35-.31-.36-.5,0-.1.77-.43.71-.49-1.46-.05-5-2.06-5.6-.93-.16-.66,1.39-1,1.75-.24.07-.83-1.17-1.14-1.53-.85-1.28-2.55-3.25-3.84-1.63-.4.48.16.9.08,1.42,0,.17-.67,0-1.45.13-1.41.17-3.28.78-3.28,2.44h0Zm-18.67-27.61c-.39.27-1.34-.16-1.32.45.24,3,5.93,3.41,7.84,4.58,0,.49-1.64.56-.63,1.61.51.51,1.15.87,1.85,1.05,1.49.53,3.62.12,4.93.5.3.42-.77,0-.35.59,1.27.71,5.5,2.84,6.62,2.91-4.09-4-8.84-7.21-13-11,3.47,3.1,7.5,5.51,11,8.66.8.75,1.66,1.45,2.57,2.07.16.06.34-.03.39-.19,0-.02.01-.05.02-.07,0-1-.79-1.2-1.39-1.94-.24-.34-.67-1.26-1-1.42s-.53,0-.68-.28.52-.9.53-1.44c.09-.9-.8-2.58-1.92-1.93s-.39-.36-.31-1c0-1.78-2-3.21-3.52-2.56-.27.15-.37.34-.64.2-.53-.29-1.48-2.56-3.39-4.05-1.17-.86-2.34-1.27-2.67-.24,0,.39-.32.5-1.07,0-1.54-1.08-3.22-1.93-5-2.53-3.46-.8-2.47,2-.24,4.42.68.87,1.5,1.52,1.38,1.61h0Zm-63.32,36.54s-1.1-.91-1.3-.87-.64.32-.6,1.47c.01.63.08,1.26.2,1.88,0,0,.17-2.02,1.7-2.48Zm1.7-29.25l-.73,7.19c0,.27.47.22.48.21s.14,19,.19,19.08.86-.22.92-.23-.32-16.44.35-17.81c.96.28,1.75.97,2.15,1.88l-.14-2.63v-.33c.2,0,.68.2.63-.19l-1.4-7.29c.16-.87.58-1.67,1.21-2.29.57-.54,1.25-.94,2-1.17.21-9.03-1.14-18.03-4-26.6l-.5-1c-.92,2.33-1.64,4.72-2.16,7.17-1.6,6.68-2.34,13.53-2.2,20.4,1.67.49,2.91,1.89,3.2,3.61Zm0-23.81c.4-1.67.78-3.1,1.14-4.28l.19,26.33c.07,2,0,4.88,0,6.9-.05-.58,0,1.24,0,1.19-.29-.07-1,.32-1.08-.16l.44-5.17c0-.08.08-2.63-.52-3.32-.56-.91-1.39-1.63-2.37-2.06-.06-6.54.68-13.07,2.2-19.43Zm4.27,51.85c-.58-.42-1.22-.76-1.9-1-.62-.05-1.25-.05-1.87,0-.8.15-1.62,0-2.32-.41h-.22c-.27.4,0,.83.28,1.14.54.68,1.38,1.05,2.25,1,1.05,0,2.09-.5,2.89.12.59.51,1.16,1.05,1.69,1.62.19.39.29.82.3,1.26,0,0,.88-.52.34-2.47-.25-.53-.96-.91-1.44-1.26h0Zm-3.27,3.87c1.2,0,4.05,1.87,4.25,2s.21-.88.18-1-.19-.79-.67-.84c-.68-.24-1.29-.66-1.77-1.21-.33-.39-.73-.57-.78-.47s-.27.26-1.24.23c-.85-.05-1.7.2-2.38.71-.2.23-.47.38-.77.43-.52.73-.68,1.65-.45,2.52.81-1.28,2.13-2.15,3.63-2.37Zm2.3,9.05c.07,0,.17,12.8.17,13.25,1.36-1.19,2.65-2.45,3.87-3.78-.29-2.65-.78-5.28-1.48-7.85-.49-1.06-1.36-2.74-1.85-3.52-.32-.48-.76-.87-1.29-1.11-.96-.19-1.83-.7-2.45-1.46-.28-.2-.57.14-1.44.26s-.7-.66-.7-.66c.35.09,1.94-1.27,2.35-1.34.98.13,1.93.38,2.85.74.11.07.62-.1.62-.1-.51-.59-3.92-1.92-4.15-2s-1.37,1-1.7,1.55c-.13.24-.42.33-.66.21-.04-.02-.08-.05-.11-.08,0,0-.35.62-.05,3,.28.87.72,1.68,1.29,2.39.31.68.84,1.23,1.5,1.58v3.68l.06,7.59.71-2c.07-2.08,0-11.17,0-11.45.73.55,1.57.92,2.46,1.1Z" />
  </g>
</svg>
