<svg width="200" height="160" viewBox="0 0 200 160" fill="none" xmlns="http://www.w3.org/2000/svg">
<g clip-path="url(#clip0_39_413)">
<mask id="mask0_39_413" style="mask-type:luminance" maskUnits="userSpaceOnUse" x="-16" y="57" width="231" height="46">
<path d="M-15.2737 57.068H214.829V102.93H-15.2737V57.068Z" fill="white"/>
</mask>
<g mask="url(#mask0_39_413)">
<path d="M29.1164 100.998L28.9397 100.867L53.5014 83.9168L8.13253 96.1115V92.4575L45.8592 82.3312C45.8166 82.1912 45.7405 82.2878 45.7048 82.2878H8.2209V78.8099H45.8373C45.8462 78.8099 45.9659 78.7671 45.9474 78.7225L8.04416 68.5961V64.9201L8 64.8546L53.6784 77.1807C45.5421 71.3756 37.114 65.9644 28.944 60.2052C28.7297 60.0541 27.8227 59.4794 27.7233 59.3526C27.6622 59.2746 27.6432 59.2338 27.6585 59.1311L33.7529 59.155L57.0355 75.1558L46.8316 59.0645L50.8956 59.0648L61.3649 75.2879L61.4098 58.9986L64.8992 58.999L64.8995 100.998H61.4095L61.3436 86.1193L51.9116 100.998H47.8032L57.6982 85.3695L34.8821 100.866L34.9478 100.998H29.1164Z" fill="#F4F7ED"/>
</g>
<mask id="mask1_39_413" style="mask-type:luminance" maskUnits="userSpaceOnUse" x="-16" y="57" width="231" height="46">
<path d="M-15.2737 57.068H214.829V102.93H-15.2737V57.068Z" fill="white"/>
</mask>
<g mask="url(#mask1_39_413)">
<path d="M134.746 100.998L134.79 59.0426L138.23 59.1162L138.236 75.42L148.669 59.0949L152.703 59.0422L142.389 75.3319L165.981 59.1551L172.075 59.1314L145.702 77.2684L191.557 64.8541V68.4861L153.388 78.7662L191.336 78.8099V82.2438L153.344 82.2444L191.424 92.4575V96.0014L145.79 83.7852L170.573 100.889L170.484 100.998H164.697L164.74 100.846L141.77 85.1935L151.798 100.998H147.778L138.279 85.942L138.236 100.998H134.746Z" fill="#F4F7ED"/>
</g>
<mask id="mask2_39_413" style="mask-type:luminance" maskUnits="userSpaceOnUse" x="-16" y="57" width="231" height="46">
<path d="M-15.2737 57.068H214.829V102.93H-15.2737V57.068Z" fill="white"/>
</mask>
<g mask="url(#mask2_39_413)">
<path d="M89.883 73.6594C90.5293 73.7662 91.4579 73.5799 92.1359 73.6594L90.9435 69.7408C90.5294 71.0308 90.0369 72.3099 89.685 73.6145C89.7603 73.5942 89.8282 73.6504 89.883 73.6594ZM85.1782 67.8922L86.3243 64.0817L92.7697 64.0689L98.0998 77.5776H99.9773V81.1656L100.003 81.2323L91.9808 81.2751L92.0255 81.2096V77.5776H93.0857L93.086 77.0931C91.8347 77.1554 90.5054 77.0112 89.2629 77.0916C88.8238 77.12 88.7481 77.0525 88.7565 77.5776H90.2143V81.2757H82.4613L82.3508 81.2537V77.5776H84.14L87.4311 67.8922H85.1782Z" fill="#F4F7ED"/>
</g>
<mask id="mask3_39_413" style="mask-type:luminance" maskUnits="userSpaceOnUse" x="-16" y="57" width="231" height="46">
<path d="M-15.2737 57.068H214.829V102.93H-15.2737V57.068Z" fill="white"/>
</mask>
<g mask="url(#mask3_39_413)">
<path d="M127.656 75.0054C130.406 69.7348 122.426 65.8737 120.188 71.239C118.093 76.2608 125.236 79.6456 127.656 75.0054ZM129.599 66.2384C133.711 69.7101 133.607 76.3188 129.305 79.5765C122.98 84.3666 114.175 79.0606 115.495 71.2728C116.603 64.7359 124.529 61.9578 129.599 66.2384Z" fill="#F4F7ED"/>
</g>
<mask id="mask4_39_413" style="mask-type:luminance" maskUnits="userSpaceOnUse" x="-16" y="57" width="231" height="46">
<path d="M-15.2737 57.0679H214.829V102.93H-15.2737V57.0679Z" fill="white"/>
</mask>
<g mask="url(#mask4_39_413)">
<path d="M106.472 77.7097H109.145C110.746 77.7097 110.957 74.2369 108.837 74.0104C108.442 73.9683 107.787 73.9923 107.375 74.0095C107.201 74.0168 106.52 74.0032 106.463 74.1156L106.472 77.7097ZM106.472 70.8859H108.04C109.469 70.8859 109.473 67.7601 108.04 67.7601H106.494L106.428 67.8262V70.7758L106.472 70.8859ZM109.984 64.1061C111.573 64.2664 112.802 65.6992 113.184 67.169C113.686 69.105 113.067 70.8379 111.552 72.0959C115.906 74.0038 115.221 80.45 110.457 81.2192L100.685 81.2757V77.6216H102.54L102.452 67.6721H100.552V64.1061H109.984Z" fill="#F4F7ED"/>
</g>
<mask id="mask5_39_413" style="mask-type:luminance" maskUnits="userSpaceOnUse" x="-16" y="57" width="231" height="46">
<path d="M-15.2737 57.0679H214.829V102.93H-15.2737V57.0679Z" fill="white"/>
</mask>
<g mask="url(#mask5_39_413)">
<path d="M76.694 64.0621L76.6943 67.9805L74.5735 67.9362V77.2034C74.5735 77.2612 74.584 77.408 74.6398 77.4456H77.2462L77.2241 75.0242H81.3767L81.2663 81.2757H68.7422V77.5776H70.7743L70.8114 67.9652L68.8084 67.8924L68.7422 67.7821V64.0621H76.694Z" fill="#F4F7ED"/>
</g>
<mask id="mask6_39_413" style="mask-type:luminance" maskUnits="userSpaceOnUse" x="-16" y="57" width="231" height="46">
<path d="M-15.2737 57.0679H214.829V102.93H-15.2737V57.0679Z" fill="white"/>
</mask>
<g mask="url(#mask6_39_413)">
<path d="M129.619 85.1495L126.68 85.1923L124.993 90.0713L124.474 90.0789L124.309 89.935L122.506 85.1716L119.811 85.1942L119.812 87.3067H120.43V91.7531L119.9 91.7091V93.8663H122.241V89.8821L122.725 89.8187L124.251 93.7346L125.017 93.7703L126.594 89.8597L127.095 89.9533L127.123 93.8663H129.619V91.7531H128.934V87.3067H129.619V85.1495ZM119.281 87.7909L119.37 84.7094L122.903 84.7088L124.759 89.5078L126.304 84.7272L130.149 84.7532V87.7909H129.398V91.2028L130.061 91.2689V94.3066H126.593L126.571 94.1965V91.3129L125.399 94.218L123.883 94.2334L122.771 91.1371L122.683 91.2909V94.3066L119.37 94.2405V91.2909L119.9 91.2251L119.9 87.7909H119.281Z" fill="#F4F7ED"/>
</g>
<mask id="mask7_39_413" style="mask-type:luminance" maskUnits="userSpaceOnUse" x="-16" y="57" width="231" height="46">
<path d="M-15.2737 57.0679H214.829V102.93H-15.2737V57.0679Z" fill="white"/>
</mask>
<g mask="url(#mask7_39_413)">
<path d="M70.2466 91.7534V93.8445L71.7417 93.8598L71.816 92.9418C73.2414 94.2413 75.948 94.2316 76.7166 92.2358C77.8765 89.2239 74.2568 88.8529 72.8755 87.7027C71.9408 86.9244 73.0561 85.6113 74.3511 86.5402C74.681 86.7769 74.7219 87.0536 75.0155 87.2875L76.5197 87.3069V85.3038H74.9734V85.9641L75.0176 86.0296C74.529 85.7643 74.168 85.3823 73.5787 85.2409C70.3639 84.4695 68.8467 88.0451 71.6027 89.7635C72.1219 90.0872 74.0766 90.8286 74.2774 91.2804C74.95 92.7934 72.1912 92.9552 71.8072 91.7169L70.2466 91.7534ZM69.7606 94.3068L69.8024 91.2451L72.1597 91.2677C72.4783 92.0933 72.9112 92.146 73.7387 91.9977L73.8651 91.5525C72.5077 90.4347 69.9923 90.133 69.7224 87.9834C69.3705 85.1802 72.1102 83.9609 74.4219 85.0182L74.5323 84.7091L76.9315 84.7167L77.0056 87.7911H74.5317C74.5294 87.08 73.4081 86.1865 73.0068 87.0815L73.0762 87.2376C74.7302 88.2291 77.2471 88.8276 77.3574 91.1602C77.4907 93.9793 74.4113 95.0008 72.1904 93.8671L72.2124 94.3068H69.7606Z" fill="#F4F7ED"/>
</g>
<mask id="mask8_39_413" style="mask-type:luminance" maskUnits="userSpaceOnUse" x="-16" y="57" width="231" height="46">
<path d="M-15.2737 57.0679H214.829V102.93H-15.2737V57.0679Z" fill="white"/>
</mask>
<g mask="url(#mask8_39_413)">
<path d="M95.0278 85.9863C94.5288 85.7265 94.1807 85.3574 93.6035 85.2266C90.4268 84.5063 88.907 88.006 91.5687 89.7197C92.2307 90.1461 94.2986 90.7803 94.4057 91.5588C94.5528 92.6276 93.0799 92.7204 92.3905 92.3347C92.1166 92.1814 91.99 91.7671 91.8153 91.7192L90.3201 91.7948L90.3662 93.8692L91.803 93.8667V93.0963C91.803 93.0869 91.8452 92.9049 91.9113 92.9445C93.6895 94.7101 97.2629 93.7906 96.9223 90.9883C96.6733 88.9409 94.3321 88.699 93.026 87.7391C91.9411 86.9418 93.1111 85.6624 94.362 86.4957C94.6696 86.7006 94.7817 87.0777 95.0697 87.2873L96.5742 87.2632L96.5989 85.1911L95.0278 85.2158V85.9863ZM89.815 91.2913L92.2612 91.2665C92.4318 92.1386 93.0492 92.1008 93.7811 92.0075C93.8397 91.8994 93.9477 91.7525 93.9459 91.6266C93.9406 91.2458 92.2 90.6054 91.8453 90.4126C87.6372 88.1249 90.3312 83.2761 94.475 85.0191L94.5675 84.716L97.1041 84.7756V87.7913H94.6523C94.3783 87.1337 94.0655 86.5113 93.2036 86.7878L93.0609 87.1286C94.2796 88.1113 96.3378 88.4438 97.0679 89.9626C98.5563 93.0585 94.9998 95.4237 92.3333 93.8229L92.2668 94.307H89.815V91.2913Z" fill="#F4F7ED"/>
</g>
<mask id="mask9_39_413" style="mask-type:luminance" maskUnits="userSpaceOnUse" x="-16" y="57" width="231" height="46">
<path d="M-15.2737 57.0679H214.829V102.93H-15.2737V57.0679Z" fill="white"/>
</mask>
<g mask="url(#mask9_39_413)">
<path d="M82.6589 85.1495H79.6107L79.6107 87.3508C79.7296 87.3963 79.9076 87.2729 79.9868 87.2803C80.271 87.3065 82.1344 89.8328 82.4854 90.1869L82.4822 91.6651H81.7311V93.8663H85.1107L85.133 91.7089L84.3818 91.7531V90.1463C84.3818 89.9633 86.559 87.4125 86.7206 87.3258C86.9279 87.2146 87.0023 87.3297 87.2089 87.3062L87.1651 85.1492L84.205 85.1935V87.1526L84.3155 87.2626H85.0223L83.3872 88.7873L81.8199 87.3283L82.6589 87.1966V85.1495ZM83.1448 84.7092V87.7689C83.1448 87.8084 83.0802 87.8448 83.1281 87.955L83.6206 88.0262L83.7195 84.7091L87.6953 84.753L87.695 87.7909H86.9661C86.8046 87.7909 85.2059 90.0246 84.8918 90.2583L84.824 91.2695L85.6631 91.2246L85.6408 94.3066H81.201L81.2453 91.1807L81.9769 91.1836C82.0446 91.0962 81.9734 90.4791 81.9302 90.3441C81.7343 89.7318 80.2553 88.4763 79.9154 87.817L79.0806 87.835V84.7092H83.1448Z" fill="#F4F7ED"/>
</g>
<mask id="mask10_39_413" style="mask-type:luminance" maskUnits="userSpaceOnUse" x="-16" y="57" width="231" height="46">
<path d="M-15.2737 57.0679H214.829V102.93H-15.2737V57.0679Z" fill="white"/>
</mask>
<g mask="url(#mask10_39_413)">
<path d="M110.489 85.2155V87.2847L110.556 87.3508H111.24L111.236 91.6801L110.489 91.7091V93.9104H116.365L116.343 91.1809H114.576L114.554 91.885L113.096 91.8633V89.9922H114.907V88.9797H113.096V86.9765L113.162 86.9105H114.554V87.5928L116.365 87.6151L116.409 85.1493L110.489 85.2155ZM116.895 88.1432H114.068V87.4388L113.581 87.4386L113.604 88.4954H115.393V90.3664L115.327 90.4324H113.538V91.423L114.048 91.4478L114.134 90.7406H116.895L116.852 94.2876L110.09 94.2884L110.048 91.2251L110.784 91.2046L110.799 87.791H110.048V84.7092L116.895 84.7753V88.1432Z" fill="#F4F7ED"/>
</g>
<mask id="mask11_39_413" style="mask-type:luminance" maskUnits="userSpaceOnUse" x="-16" y="57" width="231" height="46">
<path d="M-15.2737 57.0679H214.829V102.93H-15.2737V57.0679Z" fill="white"/>
</mask>
<g mask="url(#mask11_39_413)">
<path d="M105.986 87.7029H107.157L107.223 87.6369V85.3476C107.223 85.2865 107.214 85.1886 107.157 85.1495H99.89V87.7029H100.928L100.994 87.6369V86.9104H102.43L102.452 87.0205V91.7532L101.704 91.7557L101.831 93.8914L105.28 93.8663V91.7091L104.594 91.7539L104.485 91.6426L104.484 86.9104H105.986V87.7029ZM107.665 88.1872H105.456V87.4388H104.882V91.2029L105.754 91.289L105.766 94.2628L101.304 94.3066V91.2249L102.059 91.1585L102.01 87.5049L101.48 87.4388V88.1431L101.326 88.1872H99.4041V84.6652H107.599L107.666 84.6393L107.665 88.1872Z" fill="#F4F7ED"/>
</g>
<mask id="mask12_39_413" style="mask-type:luminance" maskUnits="userSpaceOnUse" x="-16" y="57" width="231" height="46">
<path d="M-15.2737 57.068H214.829V102.93H-15.2737V57.068Z" fill="white"/>
</mask>
<g mask="url(#mask12_39_413)">
<path d="M181.042 66.3394C179.172 66.3394 177.656 64.8286 177.656 62.9649C177.656 61.1012 179.172 59.5903 181.042 59.5903C182.912 59.5903 184.428 61.1012 184.428 62.9649C184.428 64.8286 182.912 66.3394 181.042 66.3394ZM181.039 59.113C178.886 59.113 177.141 60.8519 177.141 62.997C177.141 65.1421 178.886 66.881 181.039 66.881C183.191 66.881 184.936 65.1421 184.936 62.997C184.936 60.8519 183.191 59.113 181.039 59.113Z" fill="#F4F7ED"/>
</g>
<mask id="mask13_39_413" style="mask-type:luminance" maskUnits="userSpaceOnUse" x="8" y="57" width="184" height="46">
<path d="M8 57.6865H191.554V102.311H8V57.6865Z" fill="white"/>
</mask>
<g mask="url(#mask13_39_413)">
<path d="M181.597 62.5485H179.919L179.852 62.4825V61.3819C179.895 61.2853 181.513 61.2667 181.706 61.3407C182.262 61.5543 182.059 62.5485 181.597 62.5485ZM181.934 63.1804C182.678 62.8194 182.849 62.6262 182.849 61.8961C182.849 61.166 182.282 60.7875 181.951 60.7875H178.704C178.706 61.0386 178.876 60.8386 178.924 61.1611C178.976 61.5057 178.972 64.3121 178.896 64.5629C178.87 64.6479 178.653 64.6637 178.704 64.8378H180.029C180.082 64.6849 179.852 64.6549 179.852 64.5517V63.1428L179.919 63.0768H180.846L181.896 64.4534L181.708 64.8378H183.387L183.389 64.7362C182.812 64.7776 182.28 63.4881 181.934 63.1804Z" fill="#F4F7ED"/>
</g>
</g>
<defs>
<clipPath id="clip0_39_413">
<rect width="183.554" height="41.9996" fill="white" transform="translate(8 59)"/>
</clipPath>
</defs>
</svg>
