<svg width="13309" height="5316" viewBox="0 0 13309 5316" fill="none" xmlns="http://www.w3.org/2000/svg">
<path d="M12610.4 2709.45C12392.2 2879.91 12127.9 2950.89 11852.2 2982.88C11576.4 3014.87 11289.3 3007.87 11025.5 3022.45C11025.2 3022.45 11024.9 3022.45 11024.6 3022.45C11024.3 3022.45 11024 3022.45 11023.8 3022.45C10616.2 3021.83 10113 3034.09 9604.92 3045.7C9096.82 3057.34 7178.53 3055.93 7178.53 3033.1C7178.53 2999.21 9298.08 2931.83 9870.58 2900.96C10443.1 2870.09 11015 2838.31 11583.5 2797.46C11918.7 2783.78 12237.1 2691.26 12367 2541.09C12496.9 2390.93 12438.3 2183.09 12019.6 1938.83C10579.6 1090.76 9026.79 606.502 7429.01 421.864C5831.24 237.268 4188.56 352.294 2568.75 702.881C2347.96 750.656 1967.79 841.815 1967.79 841.815C1967.79 841.815 2441.28 874.01 2629.33 893.527C3087.81 941.136 3365.13 1087.03 3600.01 1293.3C3834.9 1499.57 4027.97 1759.62 4319.88 2015.77C4350.28 2042.41 4383.39 2065.83 4418.63 2085.34C4453.88 2104.86 4491.3 2120.48 4530.31 2131.63C4753.52 2195.39 4944.8 2096.45 5127.76 1956.73C5310.71 1817 5485.39 1636.47 5675.46 1537.15C6028.7 1341.36 6721.73 1300.72 7321.1 1293.3C7920.48 1285.88 8748.67 1273.87 8748.67 1284.06C8748.67 1297.61 7969.48 1344.76 7498.83 1369.5C7028.19 1394.24 6543.75 1434.35 6471.25 1455.19C6470.37 1455.44 6469.49 1455.64 6468.57 1455.81C6467.65 1455.97 6466.78 1456.1 6465.86 1456.18C5789.18 1524.55 5420.3 2002.72 5054.47 2254.65C4688.64 2506.58 4364.58 2500.44 3661.18 1695.47C3479.65 1487.71 3276.87 1339.33 2948.04 1229.07C2637.49 1124.95 2172.4 1090.8 1764.76 1073.56C1614.84 1067.23 790.111 1043.81 531.104 1018.46C513.419 1016.72 438.831 1011.2 437.034 997.157C435.236 983.111 506.186 960.445 522.826 954.354C2373.75 279.574 4407.76 -71.0134 6408.37 12.0238C8408.97 95.0609 10376.2 611.681 12093.6 1671.4C12226.5 1754.68 12390.3 1854.5 12522.1 1975.5C12654 2096.49 12753.9 2238.7 12759 2406.76C12759.3 2465.1 12744.3 2520.96 12718.4 2571.92C12692.6 2622.89 12655.8 2668.92 12612.6 2707.62C12612.2 2707.91 12611.9 2708.24 12611.5 2708.53C12611.2 2708.82 12610.8 2709.11 12610.4 2709.4V2709.45Z" fill="#F4F7ED"/>
<path d="M7799.01 1924.33C7207.26 1974.68 6621.06 2030.67 6131.04 2373.43C6130.77 2373.61 5940.08 2528.04 5936.65 2524.56C5933.22 2521.09 6057.4 2355.69 6078.3 2330.72C6224.78 2156.15 6437.51 2042.45 6643.77 1956.48C7173.12 1729.76 7783.25 1759.29 8347.95 1738.21C9049.43 1713.33 10751.1 1667.45 10751.1 1678.15C10751.1 1691.97 8731.27 1843.19 7799.01 1924.33Z" fill="#F4F7ED"/>
<g clip-path="url(#clip0_402_2)">
<path d="M86.6761 5315.97C60.9671 5316.16 0.918184 5316.16 0.918184 5278.79L0.0918226 4633.67C4.71622e-06 4355.19 245.246 4130.6 557.61 4130.6C869.975 4130.6 1115.22 4354.18 1115.22 4631.47C1115.22 4908.76 869.975 5132.34 557.61 5132.34C402.071 5132.34 260.304 5073.48 161.875 4983.59V5280.44C161.875 5315.7 109.355 5315.79 86.5843 5315.97H86.6761ZM557.61 4956.87C774.301 4956.87 946.276 4802.44 946.276 4631.38C946.276 4460.32 774.392 4305.88 557.61 4305.88C340.828 4305.88 168.945 4460.32 168.945 4631.38C168.945 4802.44 340.828 4956.87 557.61 4956.87Z" fill="#F4F7ED"/>
<path d="M1860.32 5132.34C1547.96 5132.34 1302.71 4908.76 1302.71 4631.47C1302.71 4354.18 1547.96 4130.6 1860.32 4130.6C2172.69 4130.6 2417.93 4354.18 2417.93 4631.47C2417.93 4908.76 2172.69 5132.34 1860.32 5132.34ZM1860.32 4305.98C1643.63 4305.98 1471.66 4460.41 1471.66 4631.47C1471.66 4802.53 1643.54 4956.97 1860.32 4956.97C2077.11 4956.97 2248.9 4802.53 2248.9 4631.47C2248.9 4460.41 2077.01 4305.98 1860.32 4305.98Z" fill="#F4F7ED"/>
<path d="M2760.87 4184.78V4193.22C2760.69 4237.57 2760.23 4447.47 2760.23 4624.86C2760.23 4814.83 2935.14 4970 3137.05 4970H3599.26C3638.19 4970 3664.27 5009.12 3664.27 5050.53C3664.27 5091.94 3638.1 5131.05 3599.26 5131.05C3599.26 5131.05 3413.61 5132.25 3137.05 5132.25C2819.18 5132.25 2603.31 4904.26 2584.86 4627.52V4626.7L2599.82 4184.59C2599.92 4146.86 2638.94 4120.96 2680.35 4120.96C2721.76 4120.96 2760.78 4146.58 2760.87 4184.68V4184.78Z" fill="#F4F7ED"/>
<path d="M3927.42 4122.34C3968.1 4122.34 4006.84 4141.07 4007.94 4170.54V5084.41C4007.94 5114.25 3967.54 5132.34 3927.42 5132.34C3887.3 5132.34 3846.9 5113.97 3846.9 5084.41C3846.9 5083.77 3846.62 4173.76 3846.9 4171.19C3848.46 4139.51 3887.75 4122.34 3927.42 4122.34Z" fill="#F4F7ED"/>
<path d="M4745.24 4121.05C5022.35 4121.05 5206.17 4122.25 5208.56 4122.34C5247.67 4123.53 5272.46 4162.1 5272.46 4202.86C5272.46 4243.63 5246.39 4283.39 5207.46 4283.39C5207.46 4283.39 4936.13 4283.39 4745.24 4283.39C4543.34 4283.39 4368.42 4437.83 4368.42 4626.88C4368.42 4815.93 4543.34 4970.37 4745.24 4970.37H5207.46C5246.39 4970.37 5272.46 5009.49 5272.46 5050.9C5272.46 5092.31 5246.29 5131.42 5207.46 5131.42C5207.46 5131.42 5021.8 5132.61 4745.24 5132.61C4428.2 5132.61 4193.05 4905.91 4193.05 4626.79C4193.05 4347.66 4428.2 4120.96 4745.24 4120.96V4121.05Z" fill="#F4F7ED"/>
<path d="M6432.03 4121.33C6473.26 4121.33 6512.56 4146.49 6512.56 4184.32C6512.56 4184.32 6513.75 4363.91 6513.75 4631.29C6513.75 4898.66 6281.54 5132.34 5982.31 5132.34C5683.07 5132.34 5450.86 4907.93 5450.86 4631.29C5450.86 4354.64 5452.06 4184.32 5452.06 4184.32C5452.06 4146.58 5491.36 4121.33 5532.58 4121.33C5573.81 4121.33 5613.11 4146.3 5613.11 4183.95C5613.11 4183.95 5613.11 4444.53 5613.11 4627.89C5613.11 4801.52 5776.82 4956.78 5982.31 4956.78C6187.8 4956.78 6351.51 4801.43 6351.51 4627.89V4183.86C6351.51 4146.21 6390.8 4121.24 6432.03 4121.24V4121.33Z" fill="#F4F7ED"/>
<path d="M8403.82 4622.38C8403.82 4890.4 8402.63 5068.06 8402.54 5070.36C8401.34 5108.46 8362.69 5132.34 8322.01 5132.34C8281.34 5132.34 8241.49 5107.36 8241.49 5069.72C8241.49 5069.72 8241.49 4809.14 8241.49 4625.78C8241.49 4442.42 8139.48 4296.89 7942.53 4296.89C7745.58 4296.89 7642.19 4448.02 7642.19 4625.78V5069.81C7642.19 5107.55 7602.71 5132.43 7558.27 5132.43C7513.83 5132.43 7475.63 5107.55 7475.63 5069.81C7475.63 5069.81 7475.63 4809.23 7475.63 4625.87C7475.63 4442.51 7372.25 4296.98 7175.3 4296.98C6978.35 4296.98 6874.59 4448.2 6874.59 4625.87V5069.9C6874.59 5107.55 6835.3 5132.52 6794.07 5132.52C6752.84 5132.52 6713.55 5107.36 6713.55 5069.53C6713.55 5069.53 6712.35 4889.94 6712.35 4622.56C6712.35 4355.19 6883.04 4121.51 7175.3 4121.51C7363.71 4121.51 7473.71 4221.5 7558.91 4359.78C7646.69 4217.28 7755.22 4121.51 7942.53 4121.51C8234.88 4121.51 8403.73 4348.85 8403.73 4622.56L8403.82 4622.38Z" fill="#F4F7ED"/>
<path d="M8600.13 4628.44L8601.05 3919.06C8601.05 3882.14 8659.44 3881.87 8684.6 3881.87C8707.92 3881.87 8762.1 3881.59 8762.1 3917.4V4279.26C8864.29 4185.79 9003.12 4130.6 9157.74 4130.6C9470.1 4130.6 9715.35 4354.18 9715.35 4631.47C9715.35 4908.76 9470.1 5132.34 9157.74 5132.34C8845.37 5132.34 8600.13 4907.38 8600.13 4628.44ZM9157.83 4956.87C9374.52 4956.87 9546.5 4802.44 9546.5 4631.38C9546.5 4460.32 9374.61 4305.88 9157.83 4305.88C8941.05 4305.88 8769.17 4460.32 8769.17 4631.38C8769.17 4802.44 8941.05 4956.87 9157.83 4956.87Z" fill="#F4F7ED"/>
<path d="M10712.7 5062.74C10469.6 5200.83 10097.3 5139.41 9953.34 4899.3C9810.01 4659.2 9904.95 4347.66 10166.3 4203.87C10388.2 4086.9 10658 4116.1 10828.3 4261.35C10845.2 4276.5 10876.8 4299.82 10900.4 4324.98C10921.4 4348.21 10946.2 4386.59 10914.1 4416.25C10806.9 4515.05 10690.4 4608.33 10567.5 4697.4C10541.2 4716.86 10488.8 4726.69 10457.3 4688.4C10430 4655.16 10428.8 4610.17 10458.2 4585.38C10502.2 4550.95 10680.8 4425.25 10707.1 4388.8C10560.4 4322.87 10405.5 4273.93 10258.4 4355.93C10072 4453.89 10009.6 4666.27 10099.9 4814.65C10107.9 4827.32 10117.1 4839.44 10127.6 4851.1C10239.4 4978.54 10467 5034.09 10617.9 4922.26L10834.6 4766.08C10859.9 4745.6 10899.9 4740 10933.9 4768.28C10966.4 4792.06 10978.5 4838.98 10949.6 4863.95C10844.6 4966.06 10867.4 4969.27 10712.7 5062.83V5062.74Z" fill="#F4F7ED"/>
<path d="M12204.7 4622.38C12204.7 4890.4 12203.5 5068.07 12203.4 5070.36C12202.2 5108.46 12163.6 5132.34 12122.9 5132.34C12082.2 5132.34 12042.4 5107.36 12042.4 5069.72C12042.4 5069.72 12042.4 4809.14 12042.4 4625.78C12042.4 4452.15 11878.7 4296.89 11673.2 4296.89C11467.7 4296.89 11304 4452.24 11304 4625.78V5069.81C11304 5107.45 11264.7 5132.43 11223.5 5132.43C11182.2 5132.43 11142.9 5107.27 11142.9 5069.44C11142.9 5069.44 11141.7 4889.85 11141.7 4622.47C11141.7 4355.1 11373.9 4121.42 11673.2 4121.42C11972.4 4121.42 12204.6 4345.82 12204.6 4622.47L12204.7 4622.38Z" fill="#F4F7ED"/>
<path d="M12373.5 4200.29C12373.5 4159.71 12400 4123.35 12438.3 4122.25H12813.4C12824.5 4119.59 12830.9 4118.94 12840.7 4118.94C12850.6 4118.94 12864 4121.33 12868 4122.25H13243C13281.8 4122.25 13308 4160.17 13308 4200.29C13308 4240.42 13281.4 4278.34 13243 4278.34C13243 4278.34 13099.4 4278.34 12926.7 4278.43V5069.26C12926.7 5107.36 12884.5 5132.34 12840.7 5132.34C12796.9 5132.34 12754.8 5107.09 12754.8 5069.35C12754.8 5069.35 12754.5 4509.08 12754.6 4278.52C12571.3 4278.52 12442.8 4278.8 12437.6 4278.34C12437.6 4278.34 12373.4 4238.77 12373.4 4200.29H12373.5Z" fill="#F4F7ED"/>
</g>
<defs>
<clipPath id="clip0_402_2">
<rect width="13308.1" height="1434.1" fill="white" transform="translate(0 3881.87)"/>
</clipPath>
</defs>
</svg>
